MerriweatherSans-BoldItalic.ufo
<glyph name="exclam" format="1">
  <advance width="686"/>
  <unicode hex="0021"/>
  <outline>
    <contour>
      <point x="224" y="488" type="line"/>
      <point x="432" y="488" type="line"/>
      <point x="665" y="1778" type="line"/>
      <point x="370" y="1778" type="line"/>
    </contour>
    <contour>
      <point x="113" y="113" type="curve" smooth="yes"/>
      <point x="108" y="30"/>
      <point x="167" y="-26"/>
      <point x="251" y="-26" type="curve" smooth="yes"/>
      <point x="359" y="-26"/>
      <point x="440" y="47"/>
      <point x="446" y="157" type="curve" smooth="yes"/>
      <point x="450" y="231"/>
      <point x="412" y="294"/>
      <point x="306" y="294" type="curve" smooth="yes"/>
      <point x="199" y="294"/>
      <point x="119" y="211"/>
    </contour>
  </outline>
</glyph>
<glyph name="percent" format="1">
  <advance width="1957"/>
  <unicode hex="0025"/>
  <outline>
    <contour>
      <point x="466" y="0" type="line"/>
      <point x="680" y="0" type="line"/>
      <point x="1507" y="1530" type="line"/>
      <point x="1303" y="1530" type="line"/>
    </contour>
    <contour>
      <point x="453" y="709" type="curve" smooth="yes"/>
      <point x="727" y="709"/>
      <point x="901" y="949"/>
      <point x="901" y="1187" type="curve" smooth="yes"/>
      <point x="901" y="1377"/>
      <point x="815" y="1506"/>
      <point x="600" y="1506" type="curve" smooth="yes"/>
      <point x="341" y="1506"/>
      <point x="152" y="1276"/>
      <point x="152" y="1045" type="curve" smooth="yes"/>
      <point x="152" y="845"/>
      <point x="255" y="709"/>
    </contour>
    <contour>
      <point x="489" y="874" type="curve" smooth="yes"/>
      <point x="401" y="874"/>
      <point x="350" y="948"/>
      <point x="350" y="1055" type="curve" smooth="yes"/>
      <point x="350" y="1167"/>
      <point x="420" y="1343"/>
      <point x="564" y="1343" type="curve" smooth="yes"/>
      <point x="646" y="1343"/>
      <point x="693" y="1275"/>
      <point x="693" y="1169" type="curve" smooth="yes"/>
      <point x="693" y="1060"/>
      <point x="632" y="874"/>
    </contour>
    <contour>
      <point x="1105" y="398" type="curve" smooth="yes"/>
      <point x="1105" y="198"/>
      <point x="1208" y="62"/>
      <point x="1407" y="62" type="curve" smooth="yes"/>
      <point x="1681" y="62"/>
      <point x="1854" y="301"/>
      <point x="1854" y="539" type="curve" smooth="yes"/>
      <point x="1854" y="730"/>
      <point x="1768" y="859"/>
      <point x="1554" y="859" type="curve" smooth="yes"/>
      <point x="1294" y="859"/>
      <point x="1105" y="628"/>
    </contour>
    <contour>
      <point x="1303" y="407" type="curve" smooth="yes"/>
      <point x="1303" y="520"/>
      <point x="1373" y="695"/>
      <point x="1518" y="695" type="curve" smooth="yes"/>
      <point x="1600" y="695"/>
      <point x="1647" y="628"/>
      <point x="1647" y="522" type="curve" smooth="yes"/>
      <point x="1647" y="413"/>
      <point x="1585" y="227"/>
      <point x="1443" y="227" type="curve" smooth="yes"/>
      <point x="1354" y="227"/>
      <point x="1303" y="301"/>
    </contour>
  </outline>
</glyph>
<glyph name="ampersand" format="1">
  <advance width="1550"/>
  <unicode hex="0026"/>
  <outline>
    <contour>
      <point x="50" y="365" type="curve" smooth="yes"/>
      <point x="50" y="93"/>
      <point x="302" y="-17"/>
      <point x="629" y="-17" type="curve" smooth="yes"/>
      <point x="1046" y="-17"/>
      <point x="1356" y="195"/>
      <point x="1356" y="586" type="curve" smooth="yes"/>
      <point x="1356" y="673"/>
      <point x="1333" y="722"/>
      <point x="1314" y="754" type="curve"/>
      <point x="1061" y="722" type="line"/>
      <point x="1078" y="686"/>
      <point x="1102" y="624"/>
      <point x="1102" y="532" type="curve" smooth="yes"/>
      <point x="1102" y="291"/>
      <point x="898" y="171"/>
      <point x="649" y="171" type="curve" smooth="yes"/>
      <point x="480" y="171"/>
      <point x="325" y="219"/>
      <point x="325" y="382" type="curve" smooth="yes"/>
      <point x="325" y="706"/>
      <point x="1133" y="764"/>
      <point x="1133" y="1238" type="curve" smooth="yes"/>
      <point x="1133" y="1374"/>
      <point x="1032" y="1546"/>
      <point x="753" y="1546" type="curve" smooth="yes"/>
      <point x="472" y="1546"/>
      <point x="299" y="1359"/>
      <point x="299" y="1118" type="curve" smooth="yes"/>
      <point x="299" y="975"/>
      <point x="373" y="778"/>
      <point x="442" y="671" type="curve"/>
      <point x="572" y="455"/>
      <point x="648" y="315"/>
      <point x="910" y="85" type="curve" smooth="yes"/>
      <point x="992" y="13"/>
      <point x="1134" y="-18"/>
      <point x="1225" y="-18" type="curve" smooth="yes"/>
      <point x="1279" y="-18"/>
      <point x="1380" y="-13"/>
      <point x="1426" y="1" type="curve"/>
      <point x="1457" y="151" type="line"/>
      <point x="1438" y="151"/>
      <point x="1416" y="151"/>
      <point x="1400" y="152" type="curve" smooth="yes"/>
      <point x="1259" y="155"/>
      <point x="1179" y="189"/>
      <point x="1092" y="259" type="curve" smooth="yes"/>
      <point x="905" y="409"/>
      <point x="758" y="626"/>
      <point x="644" y="830" type="curve"/>
      <point x="614" y="879"/>
      <point x="554" y="1003"/>
      <point x="554" y="1140" type="curve" smooth="yes"/>
      <point x="554" y="1265"/>
      <point x="621" y="1370"/>
      <point x="730" y="1370" type="curve" smooth="yes"/>
      <point x="830" y="1370"/>
      <point x="878" y="1306"/>
      <point x="878" y="1207" type="curve" smooth="yes"/>
      <point x="878" y="855"/>
      <point x="50" y="822"/>
    </contour>
    <contour>
      <point x="989" y="611" type="line"/>
      <point x="1019" y="628"/>
      <point x="1073" y="639"/>
      <point x="1135" y="639" type="curve" smooth="yes"/>
      <point x="1504" y="639" type="line"/>
      <point x="1518" y="829" type="line"/>
      <point x="1151" y="830" type="line" smooth="yes"/>
      <point x="1062" y="830"/>
      <point x="1018" y="811"/>
      <point x="999" y="790" type="curve"/>
    </contour>
  </outline>
</glyph>
<glyph name="plus" format="1">
  <advance width="1359"/>
  <unicode hex="002B"/>
  <outline>
    <contour>
      <point x="526" y="273" type="line"/>
      <point x="752" y="273" type="line"/>
      <point x="783" y="531" type="line"/>
      <point x="784" y="559"/>
      <point x="790" y="653"/>
      <point x="791" y="681" type="curve"/>
      <point x="895" y="674" type="line"/>
      <point x="1160" y="674" type="line"/>
      <point x="1186" y="884" type="line"/>
      <point x="921" y="884" type="line"/>
      <point x="815" y="874" type="line"/>
      <point x="842" y="1025" type="line"/>
      <point x="868" y="1280" type="line"/>
      <point x="643" y="1280" type="line"/>
      <point x="614" y="1025" type="line"/>
      <point x="603" y="873" type="line"/>
      <point x="476" y="884" type="line"/>
      <point x="238" y="884" type="line"/>
      <point x="212" y="674" type="line"/>
      <point x="449" y="674" type="line"/>
      <point x="581" y="681" type="line"/>
      <point x="556" y="531" type="line"/>
    </contour>
  </outline>
</glyph>
<glyph name="comma" format="1">
  <advance width="526"/>
  <unicode hex="002C"/>
  <outline>
    <contour>
      <point x="145" y="-113" type="curve" smooth="yes"/>
      <point x="145" y="-223"/>
      <point x="78" y="-332"/>
      <point x="-19" y="-381" type="curve"/>
      <point x="-22" y="-402" type="line"/>
      <point x="61" y="-510" type="line"/>
      <point x="259" y="-444"/>
      <point x="388" y="-258"/>
      <point x="388" y="-36" type="curve" smooth="yes"/>
      <point x="388" y="66"/>
      <point x="345" y="222"/>
      <point x="192" y="280" type="curve"/>
      <point x="61" y="122" type="line"/>
      <point x="54" y="68" type="line"/>
      <point x="105" y="50"/>
      <point x="145" y="-25"/>
    </contour>
  </outline>
</glyph>
<glyph name="hyphen" format="1">
  <advance width="1203"/>
  <unicode hex="002D"/>
  <outline>
    <contour>
      <point x="221" y="671" type="line"/>
      <point x="989" y="671" type="line"/>
      <point x="1017" y="874" type="line"/>
      <point x="248" y="874" type="line"/>
    </contour>
  </outline>
</glyph>
<glyph name="zero" format="1">
  <advance width="1278"/>
  <unicode hex="0030"/>
  <outline>
    <contour>
      <point x="98" y="450" type="curve" smooth="yes"/>
      <point x="98" y="208"/>
      <point x="231" y="-16"/>
      <point x="539" y="-16" type="curve" smooth="yes"/>
      <point x="902" y="-16"/>
      <point x="1170" y="315"/>
      <point x="1170" y="691" type="curve" smooth="yes"/>
      <point x="1170" y="955"/>
      <point x="1045" y="1156"/>
      <point x="734" y="1156" type="curve" smooth="yes"/>
      <point x="390" y="1156"/>
      <point x="98" y="853"/>
    </contour>
    <contour>
      <point x="369" y="478" type="curve" smooth="yes"/>
      <point x="369" y="662"/>
      <point x="447" y="951"/>
      <point x="709" y="946" type="curve" smooth="yes"/>
      <point x="850" y="944"/>
      <point x="900" y="830"/>
      <point x="900" y="661" type="curve" smooth="yes"/>
      <point x="900" y="444"/>
      <point x="802" y="196"/>
      <point x="578" y="196" type="curve" smooth="yes"/>
      <point x="437" y="196"/>
      <point x="369" y="324"/>
    </contour>
  </outline>
</glyph>
<glyph name="seven" format="1">
  <advance width="1116"/>
  <unicode hex="0037"/>
  <outline>
    <contour>
      <point x="249" y="-248" type="line"/>
      <point x="487" y="-335" type="line"/>
      <point x="1101" y="1089" type="line"/>
      <point x="1060" y="1143" type="line"/>
      <point x="138" y="1143" type="line"/>
      <point x="89" y="926" type="line"/>
      <point x="782" y="928" type="line"/>
    </contour>
  </outline>
</glyph>
<glyph name="nine" format="1">
  <advance width="1278"/>
  <unicode hex="0039"/>
  <outline>
    <contour>
      <point x="203" y="-294" type="curve"/>
      <point x="264" y="-457" type="line"/>
      <point x="777" y="-323"/>
      <point x="1145" y="137"/>
      <point x="1145" y="641" type="curve"/>
      <point x="1145" y="926"/>
      <point x="1004" y="1160"/>
      <point x="694" y="1160" type="curve" smooth="yes"/>
      <point x="297" y="1160"/>
      <point x="120" y="830"/>
      <point x="120" y="538" type="curve" smooth="yes"/>
      <point x="120" y="325"/>
      <point x="244" y="126"/>
      <point x="506" y="126" type="curve" smooth="yes"/>
      <point x="620" y="126"/>
      <point x="721" y="167"/>
      <point x="787" y="219" type="curve"/>
      <point x="728" y="57"/>
      <point x="507" y="-188"/>
    </contour>
    <contour>
      <point x="387" y="569" type="curve" smooth="yes"/>
      <point x="387" y="726"/>
      <point x="457" y="972"/>
      <point x="656" y="972" type="curve" smooth="yes"/>
      <point x="804" y="972"/>
      <point x="883" y="834"/>
      <point x="883" y="643" type="curve"/>
      <point x="883" y="579"/>
      <point x="871" y="514"/>
      <point x="852" y="440" type="curve"/>
      <point x="818" y="400"/>
      <point x="728" y="325"/>
      <point x="590" y="325" type="curve" smooth="yes"/>
      <point x="479" y="325"/>
      <point x="387" y="396"/>
    </contour>
  </outline>
</glyph>
<glyph name="less" format="1">
  <advance width="1382"/>
  <unicode hex="003C"/>
  <outline>
    <contour>
      <point x="197" y="693" type="line"/>
      <point x="1096" y="178" type="line"/>
      <point x="1119" y="408" type="line"/>
      <point x="503" y="747" type="line"/>
      <point x="1202" y="1085" type="line"/>
      <point x="1232" y="1337" type="line"/>
      <point x="213" y="822" type="line"/>
    </contour>
  </outline>
</glyph>
<glyph name="equal" format="1">
  <advance width="1074"/>
  <unicode hex="003D"/>
  <outline>
    <contour>
      <point x="101" y="327" type="line"/>
      <point x="929" y="327" type="line"/>
      <point x="956" y="530" type="line"/>
      <point x="129" y="530" type="line"/>
    </contour>
    <contour>
      <point x="164" y="828" type="line"/>
      <point x="991" y="828" type="line"/>
      <point x="1019" y="1031" type="line"/>
      <point x="191" y="1031" type="line"/>
    </contour>
  </outline>
</glyph>
<glyph name="question" format="1">
  <advance width="1040"/>
  <unicode hex="003F"/>
  <outline>
    <contour>
      <point x="354" y="464" type="curve"/>
      <point x="371" y="463" type="line"/>
      <point x="518" y="521" type="line"/>
      <point x="511" y="549"/>
      <point x="475" y="608"/>
      <point x="475" y="662" type="curve" smooth="yes"/>
      <point x="475" y="907"/>
      <point x="1042" y="870"/>
      <point x="1042" y="1348" type="curve" smooth="yes"/>
      <point x="1042" y="1577"/>
      <point x="890" y="1779"/>
      <point x="511" y="1779" type="curve" smooth="yes"/>
      <point x="432" y="1779"/>
      <point x="334" y="1756"/>
      <point x="302" y="1726" type="curve"/>
      <point x="260" y="1541" type="line"/>
      <point x="336" y="1563"/>
      <point x="395" y="1569"/>
      <point x="472" y="1569" type="curve" smooth="yes"/>
      <point x="647" y="1569"/>
      <point x="791" y="1470"/>
      <point x="791" y="1314" type="curve" smooth="yes"/>
      <point x="791" y="1275"/>
      <point x="782" y="1227"/>
      <point x="775" y="1202" type="curve"/>
      <point x="752" y="1135"/>
      <point x="651" y="1066"/>
      <point x="518" y="1003" type="curve" smooth="yes"/>
      <point x="319" y="900"/>
      <point x="247" y="819"/>
      <point x="247" y="700" type="curve" smooth="yes"/>
      <point x="247" y="608"/>
      <point x="300" y="505"/>
    </contour>
    <contour>
      <point x="331" y="107" type="curve" smooth="yes"/>
      <point x="331" y="29"/>
      <point x="387" y="-26"/>
      <point x="468" y="-26" type="curve" smooth="yes"/>
      <point x="580" y="-26"/>
      <point x="653" y="48"/>
      <point x="653" y="164" type="curve" smooth="yes"/>
      <point x="653" y="233"/>
      <point x="615" y="294"/>
      <point x="513" y="294" type="curve" smooth="yes"/>
      <point x="401" y="294"/>
      <point x="331" y="204"/>
    </contour>
  </outline>
</glyph>
<glyph name="at" format="1">
  <advance width="1998"/>
  <unicode hex="0040"/>
  <outline>
    <contour>
      <point x="112" y="374" type="curve" smooth="yes"/>
      <point x="112" y="-143"/>
      <point x="452" y="-440"/>
      <point x="919" y="-440" type="curve" smooth="yes"/>
      <point x="1090" y="-440"/>
      <point x="1253" y="-394"/>
      <point x="1345" y="-324" type="curve"/>
      <point x="1299" y="-190" type="line"/>
      <point x="1234" y="-222"/>
      <point x="1089" y="-261"/>
      <point x="937" y="-261" type="curve" smooth="yes"/>
      <point x="609" y="-261"/>
      <point x="310" y="-83"/>
      <point x="310" y="408" type="curve" smooth="yes"/>
      <point x="310" y="891"/>
      <point x="634" y="1381"/>
      <point x="1161" y="1381" type="curve" smooth="yes"/>
      <point x="1458" y="1381"/>
      <point x="1714" y="1272"/>
      <point x="1714" y="860" type="curve" smooth="yes"/>
      <point x="1714" y="546"/>
      <point x="1556" y="204"/>
      <point x="1397" y="204" type="curve" smooth="yes"/>
      <point x="1388" y="204"/>
      <point x="1384" y="214"/>
      <point x="1384" y="231" type="curve" smooth="yes"/>
      <point x="1384" y="271"/>
      <point x="1384" y="297"/>
      <point x="1395" y="400" type="curve" smooth="yes"/>
      <point x="1414" y="601"/>
      <point x="1455" y="925"/>
      <point x="1494" y="1078" type="curve"/>
      <point x="1314" y="1048" type="line"/>
      <point x="1258" y="1087"/>
      <point x="1149" y="1102"/>
      <point x="1094" y="1102" type="curve" smooth="yes"/>
      <point x="724" y="1102"/>
      <point x="545" y="745"/>
      <point x="539" y="439" type="curve" smooth="yes"/>
      <point x="533" y="142"/>
      <point x="697" y="7"/>
      <point x="832" y="7" type="curve" smooth="yes"/>
      <point x="980" y="7"/>
      <point x="1110" y="158"/>
      <point x="1200" y="371" type="curve"/>
      <point x="1194" y="312"/>
      <point x="1188" y="242"/>
      <point x="1188" y="195" type="curve" smooth="yes"/>
      <point x="1188" y="91"/>
      <point x="1208" y="11"/>
      <point x="1293" y="11" type="curve" smooth="yes"/>
      <point x="1571" y="11"/>
      <point x="1918" y="334"/>
      <point x="1918" y="899" type="curve" smooth="yes"/>
      <point x="1918" y="1293"/>
      <point x="1645" y="1545"/>
      <point x="1206" y="1545" type="curve" smooth="yes"/>
      <point x="598" y="1545"/>
      <point x="112" y="1098"/>
    </contour>
    <contour>
      <point x="776" y="466" type="curve" smooth="yes"/>
      <point x="776" y="660"/>
      <point x="877" y="925"/>
      <point x="1069" y="925" type="curve" smooth="yes"/>
      <point x="1116" y="925"/>
      <point x="1191" y="908"/>
      <point x="1222" y="866" type="curve"/>
      <point x="1196" y="664"/>
      <point x="1000" y="228"/>
      <point x="884" y="228" type="curve" smooth="yes"/>
      <point x="798" y="228"/>
      <point x="776" y="333"/>
    </contour>
  </outline>
</glyph>
<glyph name="B" format="1">
  <advance width="1296"/>
  <unicode hex="0042"/>
  <outline>
    <contour>
      <point x="215" y="0" type="line"/>
      <point x="287" y="0"/>
      <point x="416" y="-15"/>
      <point x="495" y="-15" type="curve" smooth="yes"/>
      <point x="919" y="-15"/>
      <point x="1206" y="127"/>
      <point x="1203" y="490" type="curve" smooth="yes"/>
      <point x="1202" y="657"/>
      <point x="1087" y="774"/>
      <point x="915" y="803" type="curve"/>
      <point x="1109" y="855"/>
      <point x="1220" y="1001"/>
      <point x="1218" y="1208" type="curve" smooth="yes"/>
      <point x="1217" y="1386"/>
      <point x="1110" y="1546"/>
      <point x="739" y="1546" type="curve" smooth="yes"/>
      <point x="630" y="1546"/>
      <point x="522" y="1530"/>
      <point x="423" y="1530" type="curve"/>
      <point x="510" y="1342" type="line"/>
      <point x="557" y="1352"/>
      <point x="626" y="1354"/>
      <point x="685" y="1354" type="curve" smooth="yes"/>
      <point x="852" y="1354"/>
      <point x="935" y="1306"/>
      <point x="937" y="1177" type="curve" smooth="yes"/>
      <point x="939" y="978"/>
      <point x="808" y="884"/>
      <point x="617" y="884" type="curve" smooth="yes"/>
      <point x="567" y="884"/>
      <point x="508" y="884"/>
      <point x="460" y="888" type="curve"/>
      <point x="376" y="784" type="line"/>
      <point x="437" y="689" type="line"/>
      <point x="473" y="692"/>
      <point x="517" y="696"/>
      <point x="616" y="696" type="curve" smooth="yes"/>
      <point x="810" y="696"/>
      <point x="908" y="634"/>
      <point x="910" y="471" type="curve" smooth="yes"/>
      <point x="912" y="244"/>
      <point x="758" y="180"/>
      <point x="541" y="180" type="curve" smooth="yes"/>
      <point x="494" y="180"/>
      <point x="390" y="185"/>
      <point x="362" y="203" type="curve"/>
    </contour>
    <contour>
      <point x="91" y="0" type="line"/>
      <point x="367" y="0" type="line"/>
      <point x="573" y="1530" type="line"/>
      <point x="297" y="1530" type="line"/>
    </contour>
    <contour>
      <point x="726" y="-168" type="move" name="btm"/>
    </contour>
    <contour>
      <point x="726" y="1700" type="move" name="top"/>
    </contour>
  </outline>
</glyph>
<glyph name="C" format="1">
  <advance width="1167"/>
  <unicode hex="0043"/>
  <outline>
    <contour>
      <point x="95" y="626" type="curve" smooth="yes"/>
      <point x="98" y="312"/>
      <point x="222" y="-16"/>
      <point x="618" y="-16" type="curve" smooth="yes"/>
      <point x="859" y="-16"/>
      <point x="1014" y="67"/>
      <point x="1054" y="98" type="curve"/>
      <point x="1016" y="306" type="line"/>
      <point x="971" y="271"/>
      <point x="837" y="207"/>
      <point x="683" y="207" type="curve" smooth="yes"/>
      <point x="469" y="207"/>
      <point x="379" y="376"/>
      <point x="377" y="637" type="curve" smooth="yes"/>
      <point x="374" y="932"/>
      <point x="490" y="1314"/>
      <point x="834" y="1314" type="curve" smooth="yes"/>
      <point x="991" y="1314"/>
      <point x="1073" y="1255"/>
      <point x="1109" y="1228" type="curve"/>
      <point x="1195" y="1478" type="line"/>
      <point x="1141" y="1494" type="line"/>
      <point x="1081" y="1516"/>
      <point x="998" y="1546"/>
      <point x="856" y="1546" type="curve" smooth="yes"/>
      <point x="413" y="1546"/>
      <point x="90" y="1149"/>
    </contour>
    <contour>
      <point x="612" y="-168" type="move" name="btm"/>
    </contour>
    <contour>
      <point x="829" y="1700" type="move" name="top"/>
    </contour>
  </outline>
</glyph>
<glyph name="E" format="1">
  <advance width="1171"/>
  <unicode hex="0045"/>
  <outline>
    <contour>
      <point x="91" y="0" type="line"/>
      <point x="1037" y="0" type="line"/>
      <point x="1062" y="223" type="line"/>
      <point x="396" y="210" type="line"/>
      <point x="459" y="684" type="line"/>
      <point x="891" y="672" type="line"/>
      <point x="915" y="893" type="line"/>
      <point x="487" y="887" type="line"/>
      <point x="544" y="1319" type="line"/>
      <point x="1116" y="1314" type="line"/>
      <point x="1138" y="1530" type="line"/>
      <point x="297" y="1530" type="line"/>
    </contour>
    <contour>
      <point x="698" y="-168" type="move" name="btm"/>
    </contour>
    <contour>
      <point x="727" y="1700" type="move" name="top"/>
    </contour>
  </outline>
</glyph>
<glyph name="F" format="1">
  <advance width="1069"/>
  <unicode hex="0046"/>
  <outline>
    <contour>
      <point x="91" y="0" type="line"/>
      <point x="367" y="0" type="line"/>
      <point x="456" y="660" type="line"/>
      <point x="910" y="648" type="line"/>
      <point x="934" y="878" type="line"/>
      <point x="485" y="871" type="line"/>
      <point x="544" y="1320" type="line"/>
      <point x="1093" y="1314" type="line"/>
      <point x="1121" y="1530" type="line"/>
      <point x="297" y="1530" type="line"/>
    </contour>
    <contour>
      <point x="610" y="-168" type="move" name="btm"/>
    </contour>
    <contour>
      <point x="696" y="1700" type="move" name="top"/>
    </contour>
  </outline>
</glyph>
<glyph name="G" format="1">
  <advance width="1384"/>
  <unicode hex="0047"/>
  <outline>
    <contour>
      <point x="92" y="617" type="curve" smooth="yes"/>
      <point x="94" y="312"/>
      <point x="238" y="-16"/>
      <point x="643" y="-16" type="curve" smooth="yes"/>
      <point x="815" y="-16"/>
      <point x="961" y="29"/>
      <point x="1065" y="59" type="curve" smooth="yes"/>
      <point x="1120" y="75"/>
      <point x="1155" y="83"/>
      <point x="1188" y="87" type="curve"/>
      <point x="1282" y="790" type="line"/>
      <point x="781" y="790" type="line"/>
      <point x="754" y="570" type="line"/>
      <point x="994" y="570" type="line"/>
      <point x="936" y="161" type="line"/>
      <point x="969" y="259" type="line"/>
      <point x="893" y="213"/>
      <point x="763" y="194"/>
      <point x="687" y="194" type="curve" smooth="yes"/>
      <point x="461" y="194"/>
      <point x="373" y="393"/>
      <point x="372" y="638" type="curve" smooth="yes"/>
      <point x="370" y="933"/>
      <point x="495" y="1322"/>
      <point x="859" y="1322" type="curve" smooth="yes"/>
      <point x="1040" y="1322"/>
      <point x="1181" y="1254"/>
      <point x="1228" y="1218" type="curve"/>
      <point x="1296" y="1468" type="line"/>
      <point x="1230" y="1490" type="line"/>
      <point x="1166" y="1511"/>
      <point x="1052" y="1546"/>
      <point x="865" y="1546" type="curve" smooth="yes"/>
      <point x="431" y="1546"/>
      <point x="86" y="1171"/>
    </contour>
    <contour>
      <point x="686" y="-170" type="move" name="btm"/>
    </contour>
    <contour>
      <point x="874" y="1700" type="move" name="top"/>
    </contour>
  </outline>
</glyph>
<glyph name="H" format="1">
  <advance width="1455"/>
  <unicode hex="0048"/>
  <outline>
    <contour>
      <point x="85" y="0" type="line"/>
      <point x="361" y="0" type="line"/>
      <point x="567" y="1530" type="line"/>
      <point x="291" y="1530" type="line"/>
    </contour>
    <contour>
      <point x="929" y="0" type="line"/>
      <point x="1207" y="0" type="line"/>
      <point x="1413" y="1530" type="line"/>
      <point x="1135" y="1530" type="line"/>
    </contour>
    <contour>
      <point x="359" y="658" type="line"/>
      <point x="1157" y="658" type="line"/>
      <point x="1167" y="855" type="line"/>
      <point x="368" y="855" type="line"/>
    </contour>
    <contour>
      <point x="820" y="-168" type="move" name="btm"/>
    </contour>
    <contour>
      <point x="847" y="1700" type="move" name="top"/>
    </contour>
  </outline>
</glyph>
<glyph name="I" format="1">
  <advance width="643"/>
  <unicode hex="0049"/>
  <outline>
    <contour>
      <point x="113" y="0" type="line"/>
      <point x="389" y="0" type="line"/>
      <point x="595" y="1530" type="line"/>
      <point x="319" y="1530" type="line"/>
    </contour>
    <contour>
      <point x="317" y="-168" type="move" name="btm"/>
    </contour>
    <contour>
      <point x="463" y="1700" type="move" name="top"/>
    </contour>
  </outline>
</glyph>
<glyph name="J" format="1">
  <advance width="640"/>
  <unicode hex="004A"/>
  <outline>
    <contour>
      <point x="117" y="86" type="curve" smooth="yes"/>
      <point x="91" y="-45"/>
      <point x="-10" y="-186"/>
      <point x="-175" y="-233" type="curve"/>
      <point x="-136" y="-336" type="line"/>
      <point x="84" y="-319"/>
      <point x="301" y="-232"/>
      <point x="387" y="75" type="curve" smooth="yes"/>
      <point x="416" y="172"/>
      <point x="505" y="854"/>
      <point x="592" y="1530" type="curve"/>
      <point x="315" y="1530" type="line"/>
      <point x="259" y="1095"/>
      <point x="200" y="477"/>
    </contour>
    <contour>
      <point x="273" y="-168" type="move" name="btm"/>
    </contour>
    <contour>
      <point x="449" y="1700" type="move" name="top"/>
    </contour>
  </outline>
</glyph>
<glyph name="L" format="1">
  <advance width="1023"/>
  <unicode hex="004C"/>
  <outline>
    <contour>
      <point x="91" y="0" type="line"/>
      <point x="899" y="0" type="line"/>
      <point x="931" y="229" type="line"/>
      <point x="397" y="221" type="line"/>
      <point x="573" y="1530" type="line"/>
      <point x="297" y="1530" type="line"/>
    </contour>
    <contour>
      <point x="469" y="-168" type="move" name="btm"/>
    </contour>
    <contour>
      <point x="465" y="1702" type="move" name="top"/>
    </contour>
  </outline>
</glyph>
<glyph name="M" format="1">
  <advance width="1890"/>
  <unicode hex="004D"/>
  <outline>
    <contour>
      <point x="9" y="0" type="line"/>
      <point x="283" y="0" type="line"/>
      <point x="526" y="1086" type="line"/>
      <point x="582" y="1388" type="line"/>
      <point x="601" y="1091" type="line"/>
      <point x="741" y="-18" type="line"/>
      <point x="1006" y="-3" type="line"/>
      <point x="1443" y="1104" type="line"/>
      <point x="1548" y="1388" type="line"/>
      <point x="1522" y="1080" type="line"/>
      <point x="1453" y="0" type="line"/>
      <point x="1730" y="0" type="line"/>
      <point x="1760" y="1530" type="line"/>
      <point x="1358" y="1530" type="line"/>
      <point x="967" y="474" type="line"/>
      <point x="918" y="277" type="line"/>
      <point x="907" y="474" type="line"/>
      <point x="793" y="1530" type="line"/>
      <point x="408" y="1530" type="line"/>
    </contour>
    <contour>
      <point x="1099" y="-168" type="move" name="btm"/>
    </contour>
    <contour>
      <point x="1067" y="1700" type="move" name="top"/>
    </contour>
  </outline>
</glyph>
<glyph name="N" format="1">
  <advance width="1450"/>
  <unicode hex="004E"/>
  <outline>
    <contour>
      <point x="91" y="0" type="line"/>
      <point x="353" y="0" type="line"/>
      <point x="473" y="921" type="line"/>
      <point x="485" y="1208" type="line"/>
      <point x="561" y="954" type="line"/>
      <point x="963" y="0" type="line"/>
      <point x="1208" y="0" type="line"/>
      <point x="1414" y="1530" type="line"/>
      <point x="1149" y="1530" type="line"/>
      <point x="1039" y="624" type="line"/>
      <point x="1023" y="370" type="line"/>
      <point x="952" y="603" type="line"/>
      <point x="554" y="1530" type="line"/>
      <point x="297" y="1530" type="line"/>
    </contour>
    <contour>
      <point x="653" y="-170" type="move" name="btm"/>
    </contour>
    <contour>
      <point x="856" y="1700" type="move" name="top"/>
    </contour>
  </outline>
</glyph>
<glyph name="P" format="1">
  <advance width="1239"/>
  <unicode hex="0050"/>
  <outline>
    <contour>
      <point x="91" y="0" type="line"/>
      <point x="367" y="0" type="line"/>
      <point x="436" y="510" type="line"/>
      <point x="460" y="507"/>
      <point x="525" y="504"/>
      <point x="607" y="504" type="curve" smooth="yes"/>
      <point x="1001" y="504"/>
      <point x="1246" y="765"/>
      <point x="1242" y="1132" type="curve" smooth="yes"/>
      <point x="1240" y="1411"/>
      <point x="1061" y="1546"/>
      <point x="745" y="1546" type="curve" smooth="yes"/>
      <point x="624" y="1546"/>
      <point x="521" y="1530"/>
      <point x="433" y="1530" type="curve" smooth="yes"/>
      <point x="297" y="1530" type="line"/>
    </contour>
    <contour>
      <point x="465" y="727" type="curve"/>
      <point x="546" y="1334" type="line"/>
      <point x="590" y="1342"/>
      <point x="657" y="1349"/>
      <point x="697" y="1349" type="curve" smooth="yes"/>
      <point x="897" y="1349"/>
      <point x="973" y="1263"/>
      <point x="967" y="1108" type="curve" smooth="yes"/>
      <point x="959" y="858"/>
      <point x="850" y="716"/>
      <point x="613" y="714" type="curve" smooth="yes"/>
      <point x="563" y="714"/>
      <point x="494" y="720"/>
    </contour>
    <contour>
      <point x="246" y="-170" type="move" name="btm"/>
    </contour>
    <contour>
      <point x="785" y="1700" type="move" name="top"/>
    </contour>
  </outline>
</glyph>
<glyph name="Q" format="1">
  <advance width="1387"/>
  <unicode hex="0051"/>
  <outline>
    <contour>
      <point x="540" y="-2" type="curve"/>
      <point x="465" y="-290"/>
      <point x="676" y="-390"/>
      <point x="890" y="-390" type="curve" smooth="yes"/>
      <point x="1010" y="-390"/>
      <point x="1183" y="-355"/>
      <point x="1237" y="-310" type="curve"/>
      <point x="1237" y="-132" type="line"/>
      <point x="1173" y="-152"/>
      <point x="1071" y="-159"/>
      <point x="985" y="-159" type="curve" smooth="yes"/>
      <point x="835" y="-159"/>
      <point x="707" y="-144"/>
      <point x="718" y="7" type="curve"/>
      <point x="624" y="68" type="line"/>
      <point x="599" y="38"/>
      <point x="541" y="2"/>
    </contour>
    <contour>
      <point x="700" y="-168" type="move" name="btm"/>
    </contour>
    <contour>
      <point x="936" y="1700" type="move" name="top"/>
    </contour>
    <component base="O"/>
  </outline>
</glyph>
<glyph name="R" format="1">
  <advance width="1307"/>
  <unicode hex="0052"/>
  <outline>
    <contour>
      <point x="90" y="0" type="line"/>
      <point x="366" y="0" type="line"/>
      <point x="450" y="613" type="line"/>
      <point x="513" y="613"/>
      <point x="630" y="612"/>
      <point x="630" y="612" type="curve"/>
      <point x="692" y="609"/>
      <point x="755" y="482"/>
      <point x="804" y="306" type="curve"/>
      <point x="861" y="123"/>
      <point x="885" y="41"/>
      <point x="912" y="1" type="curve"/>
      <point x="1221" y="-1" type="line"/>
      <point x="1182" y="54"/>
      <point x="1149" y="138"/>
      <point x="1055" y="393" type="curve"/>
      <point x="1021" y="511"/>
      <point x="954" y="637"/>
      <point x="895" y="675" type="curve"/>
      <point x="856" y="646" type="line"/>
      <point x="1134" y="700"/>
      <point x="1258" y="918"/>
      <point x="1256" y="1173" type="curve" smooth="yes"/>
      <point x="1253" y="1410"/>
      <point x="1098" y="1546"/>
      <point x="747" y="1546" type="curve" smooth="yes"/>
      <point x="622" y="1546"/>
      <point x="565" y="1530"/>
      <point x="448" y="1530" type="curve" smooth="yes"/>
      <point x="296" y="1530" type="line"/>
    </contour>
    <contour>
      <point x="478" y="830" type="curve"/>
      <point x="546" y="1334" type="line"/>
      <point x="580" y="1340"/>
      <point x="667" y="1347"/>
      <point x="719" y="1347" type="curve" smooth="yes"/>
      <point x="883" y="1347"/>
      <point x="971" y="1292"/>
      <point x="976" y="1161" type="curve" smooth="yes"/>
      <point x="981" y="995"/>
      <point x="901" y="827"/>
      <point x="687" y="827" type="curve" smooth="yes"/>
      <point x="645" y="827"/>
      <point x="531" y="827"/>
    </contour>
    <contour>
      <point x="615" y="-170" type="move" name="btm"/>
    </contour>
    <contour>
      <point x="775" y="1700" type="move" name="top"/>
    </contour>
  </outline>
</glyph>
<glyph name="X" format="1">
  <advance width="1201"/>
  <unicode hex="0058"/>
  <outline>
    <contour>
      <point x="-79" y="0" type="line"/>
      <point x="239" y="0" type="line"/>
      <point x="597" y="575" type="line"/>
      <point x="822" y="-1" type="line"/>
      <point x="1129" y="0" type="line"/>
      <point x="782" y="744" type="line"/>
      <point x="1322" y="1530" type="line"/>
      <point x="1017" y="1530" type="line"/>
      <point x="664" y="985" type="line"/>
      <point x="461" y="1530" type="line"/>
      <point x="162" y="1530" type="line"/>
      <point x="482" y="801" type="line"/>
    </contour>
    <contour>
      <point x="608" y="-170" type="move" name="btm"/>
    </contour>
    <contour>
      <point x="886" y="1700" type="move" name="top"/>
    </contour>
  </outline>
</glyph>
<glyph name="Y" format="1">
  <advance width="1124"/>
  <unicode hex="0059"/>
  <outline>
    <contour>
      <point x="349" y="0" type="line"/>
      <point x="620" y="0" type="line"/>
      <point x="700" y="590" type="line"/>
      <point x="1297" y="1530" type="line"/>
      <point x="994" y="1530" type="line"/>
      <point x="646" y="922" type="line"/>
      <point x="598" y="817" type="line"/>
      <point x="570" y="922" type="line"/>
      <point x="375" y="1530" type="line"/>
      <point x="83" y="1530" type="line"/>
      <point x="429" y="590" type="line"/>
    </contour>
    <contour>
      <point x="491" y="-170" type="move" name="btm"/>
    </contour>
    <contour>
      <point x="684" y="1700" type="move" name="top"/>
    </contour>
  </outline>
</glyph>
<glyph name="Z" format="1">
  <advance width="1158"/>
  <unicode hex="005A"/>
  <outline>
    <contour>
      <point x="1" y="0" type="line"/>
      <point x="1003" y="0" type="line"/>
      <point x="1040" y="231" type="line"/>
      <point x="355" y="220" type="line"/>
      <point x="459" y="330" type="line"/>
      <point x="1220" y="1444" type="line"/>
      <point x="1196" y="1530" type="line"/>
      <point x="259" y="1530" type="line"/>
      <point x="225" y="1304" type="line"/>
      <point x="864" y="1316" type="line"/>
      <point x="750" y="1203" type="line"/>
      <point x="-27" y="89" type="line"/>
    </contour>
    <contour>
      <point x="564" y="-170" type="move" name="btm"/>
    </contour>
    <contour>
      <point x="747" y="1700" type="move" name="top"/>
    </contour>
  </outline>
</glyph>
<glyph name="b" format="1">
  <advance width="1227"/>
  <unicode hex="0062"/>
  <outline>
    <contour>
      <point x="80" y="-8" type="line"/>
      <point x="365" y="56" type="line"/>
      <point x="454" y="743" type="line"/>
      <point x="458" y="854" type="line"/>
      <point x="496" y="1062" type="line"/>
      <point x="566" y="1636" type="line"/>
      <point x="302" y="1636" type="line"/>
    </contour>
    <contour>
      <point x="470" y="-16" type="curve" smooth="yes"/>
      <point x="929" y="-16"/>
      <point x="1145" y="383"/>
      <point x="1145" y="724" type="curve"/>
      <point x="1145" y="969"/>
      <point x="1054" y="1156"/>
      <point x="822" y="1156" type="curve" smooth="yes"/>
      <point x="590" y="1156"/>
      <point x="445" y="908"/>
      <point x="419" y="796" type="curve"/>
      <point x="427" y="604" type="line"/>
      <point x="467" y="719"/>
      <point x="600" y="958"/>
      <point x="742" y="958" type="curve" smooth="yes"/>
      <point x="816" y="958"/>
      <point x="857" y="877"/>
      <point x="857" y="702" type="curve" smooth="yes"/>
      <point x="857" y="463"/>
      <point x="743" y="161"/>
      <point x="497" y="161" type="curve" smooth="yes"/>
      <point x="408" y="161"/>
      <point x="328" y="179"/>
      <point x="282" y="234" type="curve"/>
      <point x="206" y="32" type="line"/>
      <point x="266" y="10"/>
      <point x="381" y="-16"/>
    </contour>
    <contour>
      <point x="863" y="1257" type="move" name="top"/>
    </contour>
  </outline>
</glyph>
<glyph name="c" format="1">
  <advance width="931"/>
  <unicode hex="0063"/>
  <outline>
    <contour>
      <point x="80" y="438" type="curve" smooth="yes"/>
      <point x="80" y="188"/>
      <point x="198" y="-16"/>
      <point x="475" y="-16" type="curve" smooth="yes"/>
      <point x="678" y="-16"/>
      <point x="811" y="99"/>
      <point x="864" y="176" type="curve"/>
      <point x="787" y="314" type="line"/>
      <point x="716" y="242"/>
      <point x="624" y="187"/>
      <point x="538" y="187" type="curve" smooth="yes"/>
      <point x="415" y="187"/>
      <point x="361" y="270"/>
      <point x="361" y="476" type="curve" smooth="yes"/>
      <point x="361" y="769"/>
      <point x="513" y="944"/>
      <point x="658" y="944" type="curve" smooth="yes"/>
      <point x="733" y="944"/>
      <point x="815" y="892"/>
      <point x="851" y="861" type="curve"/>
      <point x="919" y="1116" type="line"/>
      <point x="861" y="1143"/>
      <point x="752" y="1156"/>
      <point x="680" y="1156" type="curve" smooth="yes"/>
      <point x="308" y="1156"/>
      <point x="80" y="805"/>
    </contour>
    <contour>
      <point x="481" y="-168" type="move" name="btm"/>
    </contour>
    <contour>
      <point x="694" y="1257" type="move" name="top"/>
    </contour>
  </outline>
</glyph>
<glyph name="e" format="1">
  <advance width="1074"/>
  <unicode hex="0065"/>
  <outline>
    <contour>
      <point x="80" y="438" type="curve" smooth="yes"/>
      <point x="77" y="206"/>
      <point x="197" y="-16"/>
      <point x="493" y="-16" type="curve" smooth="yes"/>
      <point x="720" y="-16"/>
      <point x="891" y="120"/>
      <point x="949" y="202" type="curve"/>
      <point x="876" y="343" type="line"/>
      <point x="794" y="257"/>
      <point x="662" y="182"/>
      <point x="548" y="182" type="curve" smooth="yes"/>
      <point x="397" y="182"/>
      <point x="368" y="295"/>
      <point x="371" y="404" type="curve"/>
      <point x="652" y="454"/>
      <point x="1011" y="584"/>
      <point x="1011" y="900" type="curve" smooth="yes"/>
      <point x="1011" y="1051"/>
      <point x="914" y="1156"/>
      <point x="700" y="1156" type="curve" smooth="yes"/>
      <point x="345" y="1156"/>
      <point x="85" y="846"/>
    </contour>
    <contour>
      <point x="371" y="563" type="curve"/>
      <point x="382" y="721"/>
      <point x="474" y="984"/>
      <point x="639" y="984" type="curve" smooth="yes"/>
      <point x="703" y="984"/>
      <point x="741" y="955"/>
      <point x="741" y="874" type="curve" smooth="yes"/>
      <point x="741" y="695"/>
      <point x="511" y="570"/>
    </contour>
    <contour>
      <point x="830" y="65" type="move" name="btm"/>
    </contour>
    <contour>
      <point x="683" y="1257" type="move" name="top"/>
    </contour>
  </outline>
</glyph>
<glyph name="f" format="1">
  <advance width="730"/>
  <unicode hex="0066"/>
  <outline>
    <contour>
      <point x="129" y="0" type="line"/>
      <point x="401" y="0" type="line"/>
      <point x="401" y="2"/>
      <point x="464" y="465"/>
      <point x="531" y="954" type="curve"/>
      <point x="734" y="954" type="line"/>
      <point x="754" y="1140" type="line"/>
      <point x="554" y="1140" type="line"/>
      <point x="578" y="1295" type="line" smooth="yes"/>
      <point x="598" y="1425"/>
      <point x="657" y="1490"/>
      <point x="740" y="1491" type="curve" smooth="yes"/>
      <point x="803" y="1492"/>
      <point x="847" y="1466"/>
      <point x="865" y="1451" type="curve"/>
      <point x="921" y="1650" type="line"/>
      <point x="870" y="1672"/>
      <point x="810" y="1676"/>
      <point x="757" y="1676" type="curve" smooth="yes"/>
      <point x="500" y="1676"/>
      <point x="337" y="1498"/>
      <point x="301" y="1240" type="curve" smooth="yes"/>
      <point x="285" y="1140" type="line"/>
      <point x="163" y="1140" type="line"/>
      <point x="129" y="954" type="line"/>
      <point x="259" y="954" type="line"/>
    </contour>
    <contour>
      <point x="467" y="1563" type="move" name="top"/>
    </contour>
  </outline>
</glyph>
<glyph name="g" format="1">
  <advance width="1213"/>
  <unicode hex="0067"/>
  <outline>
    <contour>
      <point x="392" y="-511" type="curve" smooth="yes"/>
      <point x="632" y="-511"/>
      <point x="921" y="-415"/>
      <point x="972" y="-61" type="curve" smooth="yes"/>
      <point x="1139" y="1156" type="line"/>
      <point x="852" y="1082" type="line"/>
      <point x="747" y="323" type="line"/>
      <point x="750" y="249" type="line"/>
      <point x="690" y="-97" type="line" smooth="yes"/>
      <point x="662" y="-240"/>
      <point x="602" y="-332"/>
      <point x="445" y="-332" type="curve" smooth="yes"/>
      <point x="333" y="-332"/>
      <point x="211" y="-283"/>
      <point x="173" y="-261" type="curve"/>
      <point x="122" y="-471" type="line"/>
      <point x="163" y="-489"/>
      <point x="299" y="-511"/>
    </contour>
    <contour>
      <point x="398" y="-16" type="curve" smooth="yes"/>
      <point x="630" y="-16"/>
      <point x="775" y="238"/>
      <point x="801" y="351" type="curve"/>
      <point x="793" y="544" type="line"/>
      <point x="752" y="427"/>
      <point x="619" y="182"/>
      <point x="478" y="182" type="curve" smooth="yes"/>
      <point x="404" y="182"/>
      <point x="362" y="261"/>
      <point x="362" y="437" type="curve" smooth="yes"/>
      <point x="362" y="676"/>
      <point x="476" y="980"/>
      <point x="722" y="980" type="curve" smooth="yes"/>
      <point x="812" y="980"/>
      <point x="892" y="961"/>
      <point x="938" y="906" type="curve"/>
      <point x="1014" y="1108" type="line"/>
      <point x="954" y="1130"/>
      <point x="839" y="1156"/>
      <point x="750" y="1156" type="curve" smooth="yes"/>
      <point x="291" y="1156"/>
      <point x="75" y="755"/>
      <point x="75" y="414" type="curve" smooth="yes"/>
      <point x="75" y="169"/>
      <point x="166" y="-16"/>
    </contour>
    <contour>
      <point x="759" y="1257" type="move" name="top"/>
    </contour>
  </outline>
</glyph>
<glyph name="k" format="1">
  <advance width="1134"/>
  <unicode hex="006B"/>
  <outline>
    <contour>
      <point x="473" y="632" type="line"/>
      <point x="774" y="2" type="line"/>
      <point x="1092" y="2" type="line"/>
      <point x="700" y="696" type="line"/>
    </contour>
    <contour>
      <point x="689" y="587" type="line"/>
      <point x="778" y="612"/>
      <point x="950" y="734"/>
      <point x="1051" y="912" type="curve" smooth="yes"/>
      <point x="1097" y="984"/>
      <point x="1128" y="1055"/>
      <point x="1135" y="1140" type="curve"/>
      <point x="865" y="1140" type="line"/>
      <point x="836" y="1050"/>
      <point x="796" y="981"/>
      <point x="745" y="911" type="curve" smooth="yes"/>
      <point x="668" y="788"/>
      <point x="587" y="697"/>
      <point x="473" y="633" type="curve"/>
    </contour>
    <contour>
      <point x="83" y="0" type="line"/>
      <point x="355" y="0" type="line"/>
      <point x="569" y="1636" type="line"/>
      <point x="297" y="1636" type="line"/>
    </contour>
    <contour>
      <point x="557" y="-168" type="move" name="btm"/>
    </contour>
    <contour>
      <point x="631" y="1257" type="move" name="top"/>
    </contour>
  </outline>
</glyph>
<glyph name="l" format="1">
  <advance width="625"/>
  <unicode hex="006C"/>
  <outline>
    <contour>
      <point x="104" y="2" type="line"/>
      <point x="380" y="2" type="line"/>
      <point x="603" y="1636" type="line"/>
      <point x="326" y="1636" type="line"/>
    </contour>
    <contour>
      <point x="212" y="-168" type="move" name="btm"/>
    </contour>
    <contour>
      <point x="642" y="1570" type="move" name="caron"/>
    </contour>
    <contour>
      <point x="352" y="1257" type="move" name="top"/>
    </contour>
    <contour>
      <point x="557" y="1883" type="move" name="cap"/>
    </contour>
  </outline>
</glyph>
<glyph name="m" format="1">
  <advance width="1867"/>
  <unicode hex="006D"/>
  <outline>
    <contour>
      <point x="412" y="640" type="line"/>
      <point x="479" y="792"/>
      <point x="636" y="931"/>
      <point x="741" y="931" type="curve" smooth="yes"/>
      <point x="800" y="931"/>
      <point x="836" y="911"/>
      <point x="834" y="821" type="curve" smooth="yes"/>
      <point x="833" y="755"/>
      <point x="819" y="645"/>
      <point x="801" y="512" type="curve" smooth="yes"/>
      <point x="779" y="347"/>
      <point x="750" y="156"/>
      <point x="729" y="2" type="curve"/>
      <point x="1005" y="2" type="line"/>
      <point x="1026" y="147"/>
      <point x="1056" y="343"/>
      <point x="1079" y="513" type="curve" smooth="yes"/>
      <point x="1102" y="673"/>
      <point x="1119" y="806"/>
      <point x="1119" y="860" type="curve" smooth="yes"/>
      <point x="1119" y="1076"/>
      <point x="1030" y="1156"/>
      <point x="873" y="1156" type="curve" smooth="yes"/>
      <point x="667" y="1156"/>
      <point x="479" y="981"/>
      <point x="394" y="781" type="curve" smooth="yes"/>
      <point x="385" y="651" type="line"/>
    </contour>
    <contour>
      <point x="1044" y="640" type="line"/>
      <point x="1110" y="792"/>
      <point x="1264" y="931"/>
      <point x="1370" y="931" type="curve" smooth="yes"/>
      <point x="1429" y="931"/>
      <point x="1465" y="911"/>
      <point x="1463" y="821" type="curve" smooth="yes"/>
      <point x="1461" y="755"/>
      <point x="1447" y="645"/>
      <point x="1429" y="512" type="curve" smooth="yes"/>
      <point x="1406" y="347"/>
      <point x="1378" y="156"/>
      <point x="1357" y="2" type="curve"/>
      <point x="1633" y="2" type="line"/>
      <point x="1654" y="147"/>
      <point x="1684" y="343"/>
      <point x="1707" y="513" type="curve" smooth="yes"/>
      <point x="1730" y="673"/>
      <point x="1747" y="806"/>
      <point x="1747" y="860" type="curve" smooth="yes"/>
      <point x="1747" y="1076"/>
      <point x="1659" y="1156"/>
      <point x="1502" y="1156" type="curve" smooth="yes"/>
      <point x="1295" y="1156"/>
      <point x="1106" y="981"/>
      <point x="1021" y="781" type="curve" smooth="yes"/>
      <point x="1016" y="651" type="line"/>
    </contour>
    <contour>
      <point x="80" y="2" type="line"/>
      <point x="356" y="2" type="line"/>
      <point x="481" y="914" type="line"/>
      <point x="500" y="1140" type="line"/>
      <point x="235" y="1140" type="line"/>
    </contour>
    <contour>
      <point x="1074" y="1257" type="move" name="top"/>
    </contour>
  </outline>
</glyph>
<glyph name="n" format="1">
  <advance width="1257"/>
  <unicode hex="006E"/>
  <outline>
    <contour>
      <point x="80" y="2" type="line"/>
      <point x="356" y="2" type="line"/>
      <point x="481" y="914" type="line"/>
      <point x="498" y="1140" type="line"/>
      <point x="235" y="1140" type="line"/>
    </contour>
    <contour>
      <point x="413" y="640" type="line"/>
      <point x="483" y="792"/>
      <point x="649" y="931"/>
      <point x="758" y="931" type="curve" smooth="yes"/>
      <point x="818" y="931"/>
      <point x="853" y="911"/>
      <point x="851" y="821" type="curve" smooth="yes"/>
      <point x="850" y="755"/>
      <point x="836" y="645"/>
      <point x="818" y="512" type="curve" smooth="yes"/>
      <point x="796" y="347"/>
      <point x="767" y="156"/>
      <point x="746" y="2" type="curve"/>
      <point x="1022" y="2" type="line"/>
      <point x="1043" y="147"/>
      <point x="1073" y="343"/>
      <point x="1096" y="513" type="curve" smooth="yes"/>
      <point x="1119" y="673"/>
      <point x="1136" y="806"/>
      <point x="1136" y="860" type="curve" smooth="yes"/>
      <point x="1136" y="1076"/>
      <point x="1047" y="1156"/>
      <point x="887" y="1156" type="curve" smooth="yes"/>
      <point x="676" y="1156"/>
      <point x="482" y="981"/>
      <point x="395" y="781" type="curve"/>
    </contour>
    <contour>
      <point x="523" y="-168" type="move" name="btm"/>
    </contour>
    <contour>
      <point x="757" y="1257" type="move" name="top"/>
    </contour>
  </outline>
</glyph>
<glyph name="r" format="1">
  <advance width="846"/>
  <unicode hex="0072"/>
  <outline>
    <contour>
      <point x="449" y="685" type="line"/>
      <point x="523" y="811"/>
      <point x="629" y="878"/>
      <point x="717" y="878" type="curve" smooth="yes"/>
      <point x="758" y="878"/>
      <point x="799" y="872"/>
      <point x="816" y="858" type="curve"/>
      <point x="870" y="1143" type="line"/>
      <point x="859" y="1152"/>
      <point x="832" y="1156"/>
      <point x="804" y="1156" type="curve" smooth="yes"/>
      <point x="640" y="1156"/>
      <point x="519" y="1013"/>
      <point x="477" y="911" type="curve"/>
      <point x="395" y="770" type="line"/>
    </contour>
    <contour>
      <point x="80" y="0" type="line"/>
      <point x="356" y="0" type="line"/>
      <point x="482" y="914" type="line"/>
      <point x="501" y="1140" type="line"/>
      <point x="236" y="1140" type="line"/>
    </contour>
    <contour>
      <point x="199" y="-168" type="move" name="btm"/>
    </contour>
    <contour>
      <point x="494" y="1257" type="move" name="top"/>
    </contour>
  </outline>
</glyph>
<glyph name="u" format="1">
  <advance width="1233"/>
  <unicode hex="0075"/>
  <outline>
    <contour>
      <point x="750" y="0" type="line"/>
      <point x="1000" y="0" type="line"/>
      <point x="1153" y="1140" type="line"/>
      <point x="877" y="1140" type="line"/>
      <point x="759" y="269" type="line"/>
      <point x="768" y="269" type="line"/>
    </contour>
    <contour>
      <point x="112" y="253" type="curve" smooth="yes"/>
      <point x="113" y="52"/>
      <point x="222" y="-20"/>
      <point x="383" y="-20" type="curve" smooth="yes"/>
      <point x="606" y="-20"/>
      <point x="785" y="186"/>
      <point x="843" y="357" type="curve"/>
      <point x="837" y="533" type="line"/>
      <point x="781" y="382"/>
      <point x="622" y="193"/>
      <point x="497" y="193" type="curve" smooth="yes"/>
      <point x="434" y="193"/>
      <point x="395" y="221"/>
      <point x="395" y="307" type="curve" smooth="yes"/>
      <point x="395" y="355"/>
      <point x="405" y="449"/>
      <point x="418" y="543" type="curve" smooth="yes"/>
      <point x="429" y="633"/>
      <point x="482" y="1028"/>
      <point x="497" y="1140" type="curve"/>
      <point x="223" y="1140" type="line"/>
      <point x="206" y="1030"/>
      <point x="152" y="636"/>
      <point x="140" y="546" type="curve" smooth="yes"/>
      <point x="125" y="433"/>
      <point x="111" y="322"/>
    </contour>
    <contour>
      <point x="724" y="1257" type="move" name="top"/>
    </contour>
    <contour>
      <point x="1110" y="101" type="move" name="bottom"/>
    </contour>
  </outline>
</glyph>
<glyph name="y" format="1">
  <advance width="1095"/>
  <unicode hex="0079"/>
  <outline>
    <contour>
      <point x="468" y="407" type="line"/>
      <point x="389" y="1140" type="line"/>
      <point x="105" y="1140" type="line"/>
      <point x="217" y="357" type="line"/>
      <point x="277" y="-18" type="line"/>
      <point x="518" y="-18" type="line"/>
    </contour>
    <contour>
      <point x="459" y="9" type="curve"/>
      <point x="300" y="-234"/>
      <point x="202" y="-301"/>
      <point x="76" y="-301" type="curve" smooth="yes"/>
      <point x="14" y="-301"/>
      <point x="-41" y="-274"/>
      <point x="-71" y="-255" type="curve"/>
      <point x="-144" y="-458" type="line"/>
      <point x="-96" y="-482"/>
      <point x="-16" y="-509"/>
      <point x="58" y="-509" type="curve" smooth="yes"/>
      <point x="340" y="-509"/>
      <point x="461" y="-322"/>
      <point x="592" y="-151" type="curve" smooth="yes"/>
      <point x="678" y="-39"/>
      <point x="771" y="109"/>
      <point x="851" y="281" type="curve" smooth="yes"/>
      <point x="960" y="506"/>
      <point x="1041" y="751"/>
      <point x="1050" y="997" type="curve" smooth="yes"/>
      <point x="1052" y="1060"/>
      <point x="1051" y="1110"/>
      <point x="1048" y="1140" type="curve"/>
      <point x="792" y="1140" type="line"/>
      <point x="791" y="1093"/>
      <point x="791" y="1044"/>
      <point x="787" y="992" type="curve" smooth="yes"/>
      <point x="765" y="727"/>
      <point x="722" y="549"/>
      <point x="615" y="339" type="curve"/>
      <point x="580" y="229"/>
      <point x="487" y="64"/>
    </contour>
    <contour>
      <point x="588" y="1257" type="move" name="top"/>
    </contour>
  </outline>
</glyph>
<glyph name="bar" format="1">
  <advance width="854"/>
  <unicode hex="007C"/>
  <outline>
    <contour>
      <point x="337" y="-186" type="line"/>
      <point x="550" y="-186" type="line"/>
      <point x="550" y="1780" type="line"/>
      <point x="337" y="1780" type="line"/>
    </contour>
  </outline>
</glyph>
<glyph name="asciitilde" format="1">
  <advance width="1137"/>
  <unicode hex="007E"/>
  <outline>
    <contour>
      <point x="214" y="760" type="line"/>
      <point x="257" y="820"/>
      <point x="320" y="873"/>
      <point x="401" y="873" type="curve" smooth="yes"/>
      <point x="535" y="873"/>
      <point x="598" y="696"/>
      <point x="776" y="696" type="curve" smooth="yes"/>
      <point x="924" y="696"/>
      <point x="1069" y="806"/>
      <point x="1098" y="916" type="curve"/>
      <point x="995" y="1022" type="line"/>
      <point x="947" y="952"/>
      <point x="884" y="910"/>
      <point x="803" y="910" type="curve" smooth="yes"/>
      <point x="682" y="910"/>
      <point x="604" y="1082"/>
      <point x="431" y="1082" type="curve" smooth="yes"/>
      <point x="283" y="1082"/>
      <point x="136" y="966"/>
      <point x="104" y="867" type="curve"/>
    </contour>
  </outline>
</glyph>
<glyph name="cent" format="1">
  <advance width="1067"/>
  <unicode hex="00A2"/>
  <outline>
    <contour>
      <point x="561" y="1054" type="line"/>
      <point x="755" y="1054" type="line"/>
      <point x="836" y="1393" type="line"/>
      <point x="641" y="1393" type="line"/>
    </contour>
    <contour>
      <point x="392" y="103" type="line"/>
      <point x="328" y="-245" type="line"/>
      <point x="523" y="-245" type="line"/>
      <point x="587" y="103" type="line"/>
    </contour>
    <component base="c" xOffset="34"/>
  </outline>
</glyph>
<glyph name="sterling" format="1">
  <advance width="1397"/>
  <unicode hex="00A3"/>
  <outline>
    <contour>
      <point x="-35" y="96" type="curve" smooth="yes"/>
      <point x="-41" y="23"/>
      <point x="7" y="-20"/>
      <point x="83" y="-20" type="curve" smooth="yes"/>
      <point x="159" y="-20"/>
      <point x="252" y="27"/>
      <point x="305" y="94" type="curve"/>
      <point x="464" y="59"/>
      <point x="638" y="-20"/>
      <point x="879" y="-20" type="curve" smooth="yes"/>
      <point x="1299" y="-20"/>
      <point x="1348" y="212"/>
      <point x="1349" y="352" type="curve" smooth="yes"/>
      <point x="1349" y="457"/>
      <point x="1285" y="578"/>
      <point x="1194" y="634" type="curve"/>
      <point x="1011" y="490" type="line"/>
      <point x="1047" y="470"/>
      <point x="1093" y="405"/>
      <point x="1093" y="351" type="curve" smooth="yes"/>
      <point x="1093" y="246"/>
      <point x="1015" y="178"/>
      <point x="824" y="178" type="curve" smooth="yes"/>
      <point x="700" y="178"/>
      <point x="559" y="225"/>
      <point x="474" y="252" type="curve"/>
      <point x="537" y="341"/>
      <point x="570" y="418"/>
      <point x="604" y="621" type="curve" smooth="yes"/>
      <point x="672" y="1022" type="line" smooth="yes"/>
      <point x="714" y="1278"/>
      <point x="823" y="1359"/>
      <point x="941" y="1359" type="curve" smooth="yes"/>
      <point x="1063" y="1359"/>
      <point x="1141" y="1274"/>
      <point x="1151" y="1247" type="curve"/>
      <point x="1283" y="1445" type="line"/>
      <point x="1231" y="1495"/>
      <point x="1134" y="1545"/>
      <point x="947" y="1545" type="curve" smooth="yes"/>
      <point x="601" y="1546"/>
      <point x="442" y="1288"/>
      <point x="403" y="1033" type="curve" smooth="yes"/>
      <point x="310" y="487" type="line" smooth="yes"/>
      <point x="296" y="400"/>
      <point x="263" y="314"/>
      <point x="220" y="275" type="curve"/>
      <point x="110" y="275"/>
      <point x="-30" y="192"/>
    </contour>
    <contour>
      <point x="178" y="732" type="line"/>
      <point x="938" y="732" type="line"/>
      <point x="961" y="913" type="line"/>
      <point x="202" y="913" type="line"/>
    </contour>
  </outline>
</glyph>
<glyph name="yen" format="1">
  <advance width="1476"/>
  <unicode hex="00A5"/>
  <outline>
    <contour>
      <point x="168" y="350" type="line"/>
      <point x="1268" y="350" type="line"/>
      <point x="1285" y="506" type="line"/>
      <point x="186" y="506" type="line"/>
    </contour>
    <contour>
      <point x="212" y="706" type="line"/>
      <point x="1312" y="706" type="line"/>
      <point x="1330" y="862" type="line"/>
      <point x="230" y="862" type="line"/>
    </contour>
    <contour>
      <point x="533" y="0" type="line"/>
      <point x="805" y="0" type="line"/>
      <point x="897" y="718" type="line"/>
      <point x="1479" y="1530" type="line"/>
      <point x="1171" y="1530" type="line"/>
      <point x="849" y="977" type="line"/>
      <point x="793" y="863" type="line"/>
      <point x="759" y="973" type="line"/>
      <point x="548" y="1530" type="line"/>
      <point x="274" y="1530" type="line"/>
      <point x="621" y="723" type="line"/>
    </contour>
  </outline>
</glyph>
<glyph name="brokenbar" format="1">
  <advance width="854"/>
  <unicode hex="00A6"/>
  <outline>
    <contour>
      <point x="337" y="901" type="line"/>
      <point x="550" y="901" type="line"/>
      <point x="550" y="1780" type="line"/>
      <point x="337" y="1780" type="line"/>
    </contour>
    <contour>
      <point x="337" y="-186" type="line"/>
      <point x="550" y="-186" type="line"/>
      <point x="550" y="693" type="line"/>
      <point x="337" y="693" type="line"/>
    </contour>
  </outline>
</glyph>
<glyph name="section" format="1">
  <advance width="1194"/>
  <unicode hex="00A7"/>
  <outline>
    <contour>
      <point x="750" y="422" type="curve"/>
      <point x="910" y="334" type="line"/>
      <point x="1045" y="404"/>
      <point x="1127" y="523"/>
      <point x="1126" y="668" type="curve" smooth="yes"/>
      <point x="1123" y="867"/>
      <point x="957" y="1005"/>
      <point x="772" y="1097" type="curve" smooth="yes"/>
      <point x="598" y="1185"/>
      <point x="505" y="1221"/>
      <point x="511" y="1341" type="curve" smooth="yes"/>
      <point x="516" y="1418"/>
      <point x="604" y="1478"/>
      <point x="759" y="1478" type="curve" smooth="yes"/>
      <point x="831" y="1478"/>
      <point x="1004" y="1458"/>
      <point x="1061" y="1382" type="curve"/>
      <point x="1126" y="1568" type="line"/>
      <point x="1080" y="1608"/>
      <point x="955" y="1673"/>
      <point x="764" y="1673" type="curve" smooth="yes"/>
      <point x="428" y="1673"/>
      <point x="244" y="1519"/>
      <point x="246" y="1319" type="curve" smooth="yes"/>
      <point x="249" y="1077"/>
      <point x="447" y="982"/>
      <point x="629" y="893" type="curve" smooth="yes"/>
      <point x="841" y="786"/>
      <point x="883" y="716"/>
      <point x="882" y="622" type="curve" smooth="yes"/>
      <point x="881" y="509"/>
      <point x="810" y="459"/>
    </contour>
    <contour>
      <point x="155" y="132" type="curve"/>
      <point x="99" y="-69" type="line"/>
      <point x="144" y="-111"/>
      <point x="314" y="-187"/>
      <point x="492" y="-187" type="curve" smooth="yes"/>
      <point x="838" y="-187"/>
      <point x="1039" y="-24"/>
      <point x="1036" y="200" type="curve" smooth="yes"/>
      <point x="1034" y="409"/>
      <point x="847" y="489"/>
      <point x="673" y="570" type="curve" smooth="yes"/>
      <point x="472" y="676"/>
      <point x="395" y="732"/>
      <point x="401" y="859" type="curve" smooth="yes"/>
      <point x="405" y="957"/>
      <point x="476" y="1011"/>
      <point x="546" y="1045" type="curve"/>
      <point x="388" y="1118" type="line"/>
      <point x="242" y="1052"/>
      <point x="150" y="958"/>
      <point x="152" y="822" type="curve" smooth="yes"/>
      <point x="155" y="605"/>
      <point x="331" y="465"/>
      <point x="526" y="375" type="curve" smooth="yes"/>
      <point x="695" y="299"/>
      <point x="776" y="247"/>
      <point x="775" y="171" type="curve" smooth="yes"/>
      <point x="775" y="59"/>
      <point x="670" y="17"/>
      <point x="500" y="17" type="curve" smooth="yes"/>
      <point x="396" y="17"/>
      <point x="210" y="64"/>
    </contour>
  </outline>
</glyph>
<glyph name="dieresis" format="1">
  <advance width="813"/>
  <unicode hex="00A8"/>
  <outline>
    <contour>
      <point x="159" y="1363" type="curve" smooth="yes"/>
      <point x="264" y="1363"/>
      <point x="327" y="1444"/>
      <point x="330" y="1538" type="curve" smooth="yes"/>
      <point x="332" y="1609"/>
      <point x="277" y="1676"/>
      <point x="191" y="1676" type="curve" smooth="yes"/>
      <point x="98" y="1676"/>
      <point x="29" y="1599"/>
      <point x="27" y="1507" type="curve" smooth="yes"/>
      <point x="24" y="1433"/>
      <point x="87" y="1363"/>
    </contour>
    <contour>
      <point x="605" y="1363" type="curve" smooth="yes"/>
      <point x="710" y="1363"/>
      <point x="774" y="1444"/>
      <point x="777" y="1538" type="curve" smooth="yes"/>
      <point x="779" y="1609"/>
      <point x="723" y="1676"/>
      <point x="637" y="1676" type="curve" smooth="yes"/>
      <point x="544" y="1676"/>
      <point x="476" y="1599"/>
      <point x="474" y="1507" type="curve" smooth="yes"/>
      <point x="471" y="1433"/>
      <point x="532" y="1363"/>
    </contour>
    <contour>
      <point x="379" y="1255" type="move" name="_top"/>
    </contour>
  </outline>
</glyph>
<glyph name="registered" format="1">
  <advance width="2110"/>
  <unicode hex="00AE"/>
  <outline>
    <contour>
      <point x="719" y="483" type="line"/>
      <point x="920" y="483" type="line"/>
      <point x="920" y="841" type="line"/>
      <point x="956" y="841"/>
      <point x="1008" y="841"/>
      <point x="1028" y="842" type="curve"/>
      <point x="1120" y="810"/>
      <point x="1159" y="682"/>
      <point x="1200" y="596" type="curve" smooth="yes"/>
      <point x="1222" y="551"/>
      <point x="1237" y="516"/>
      <point x="1264" y="484" type="curve"/>
      <point x="1494" y="483" type="line"/>
      <point x="1446" y="551"/>
      <point x="1429" y="578"/>
      <point x="1409" y="613" type="curve" smooth="yes"/>
      <point x="1358" y="703"/>
      <point x="1323" y="812"/>
      <point x="1237" y="867" type="curve"/>
      <point x="1381" y="910"/>
      <point x="1430" y="1030"/>
      <point x="1430" y="1177" type="curve" smooth="yes"/>
      <point x="1430" y="1331"/>
      <point x="1317" y="1452"/>
      <point x="1067" y="1452" type="curve" smooth="yes"/>
      <point x="956" y="1452"/>
      <point x="884" y="1445"/>
      <point x="806" y="1445" type="curve" smooth="yes"/>
      <point x="719" y="1445" type="line"/>
    </contour>
    <contour>
      <point x="920" y="989" type="curve"/>
      <point x="920" y="1292" type="line"/>
      <point x="957" y="1303"/>
      <point x="985" y="1303"/>
      <point x="1025" y="1303" type="curve" smooth="yes"/>
      <point x="1180" y="1307"/>
      <point x="1225" y="1247"/>
      <point x="1225" y="1151" type="curve" smooth="yes"/>
      <point x="1225" y="1034"/>
      <point x="1163" y="984"/>
      <point x="1045" y="984" type="curve" smooth="yes"/>
      <point x="1010" y="984"/>
      <point x="950" y="985"/>
    </contour>
    <contour>
      <point x="325" y="963" type="curve" smooth="yes"/>
      <point x="325" y="1376"/>
      <point x="638" y="1712"/>
      <point x="1055" y="1712" type="curve" smooth="yes"/>
      <point x="1472" y="1712"/>
      <point x="1785" y="1376"/>
      <point x="1785" y="963" type="curve" smooth="yes"/>
      <point x="1785" y="549"/>
      <point x="1472" y="212"/>
      <point x="1055" y="212" type="curve" smooth="yes"/>
      <point x="638" y="212"/>
      <point x="325" y="549"/>
    </contour>
    <contour>
      <point x="183" y="963" type="curve" smooth="yes"/>
      <point x="183" y="476"/>
      <point x="569" y="83"/>
      <point x="1055" y="83" type="curve" smooth="yes"/>
      <point x="1541" y="83"/>
      <point x="1928" y="476"/>
      <point x="1928" y="963" type="curve" smooth="yes"/>
      <point x="1928" y="1449"/>
      <point x="1541" y="1839"/>
      <point x="1055" y="1839" type="curve" smooth="yes"/>
      <point x="569" y="1839"/>
      <point x="183" y="1449"/>
    </contour>
  </outline>
</glyph>
<glyph name="macron" format="1">
  <advance width="617"/>
  <unicode hex="00AF"/>
  <outline>
    <contour>
      <point x="34" y="1415" type="line"/>
      <point x="577" y="1415" type="line"/>
      <point x="588" y="1594" type="line"/>
      <point x="45" y="1594" type="line"/>
    </contour>
    <contour>
      <point x="314" y="1255" type="move" name="_top"/>
    </contour>
  </outline>
</glyph>
<glyph name="plusminus" format="1">
  <advance width="1361"/>
  <unicode hex="00B1"/>
  <outline>
    <contour>
      <point x="168" y="15" type="line"/>
      <point x="1055" y="15" type="line"/>
      <point x="1072" y="194" type="line"/>
      <point x="185" y="194" type="line"/>
    </contour>
    <contour>
      <point x="526" y="273" type="line"/>
      <point x="752" y="273" type="line"/>
      <point x="782" y="531" type="line"/>
      <point x="784" y="559"/>
      <point x="789" y="653"/>
      <point x="791" y="681" type="curve"/>
      <point x="895" y="674" type="line"/>
      <point x="1160" y="674" type="line"/>
      <point x="1186" y="884" type="line"/>
      <point x="921" y="884" type="line"/>
      <point x="815" y="874" type="line"/>
      <point x="842" y="1025" type="line"/>
      <point x="868" y="1280" type="line"/>
      <point x="643" y="1280" type="line"/>
      <point x="615" y="1025" type="line"/>
      <point x="613" y="998"/>
      <point x="605" y="901"/>
      <point x="603" y="873" type="curve"/>
      <point x="475" y="884" type="line"/>
      <point x="238" y="884" type="line"/>
      <point x="212" y="674" type="line"/>
      <point x="449" y="674" type="line"/>
      <point x="581" y="681" type="line"/>
      <point x="556" y="531" type="line"/>
    </contour>
  </outline>
</glyph>
<glyph name="paragraph" format="1">
  <advance width="1364"/>
  <unicode hex="00B6"/>
  <outline>
    <contour>
      <point x="377" y="0" type="line"/>
      <point x="611" y="0" type="line"/>
      <point x="786" y="1368" type="line"/>
      <point x="980" y="1368" type="line"/>
      <point x="807" y="0" type="line"/>
      <point x="1042" y="0" type="line"/>
      <point x="1067" y="211"/>
      <point x="1194" y="1161"/>
      <point x="1219" y="1372" type="curve"/>
      <point x="1386" y="1405" type="line"/>
      <point x="1404" y="1552" type="line"/>
      <point x="1100" y="1552" type="line"/>
      <point x="980" y="1552"/>
      <point x="880" y="1571"/>
      <point x="716" y="1571" type="curve" smooth="yes"/>
      <point x="279" y="1571"/>
      <point x="116" y="1365"/>
      <point x="121" y="1095" type="curve" smooth="yes"/>
      <point x="125" y="877"/>
      <point x="265" y="731"/>
      <point x="479" y="726" type="curve"/>
    </contour>
  </outline>
</glyph>
<glyph name="questiondown" format="1">
  <advance width="1048"/>
  <unicode hex="00BF"/>
  <outline>
    <contour>
      <point x="318" y="111" type="curve" smooth="yes"/>
      <point x="318" y="150"/>
      <point x="327" y="198"/>
      <point x="334" y="222" type="curve"/>
      <point x="357" y="290"/>
      <point x="458" y="359"/>
      <point x="591" y="422" type="curve" smooth="yes"/>
      <point x="790" y="525"/>
      <point x="862" y="606"/>
      <point x="862" y="725" type="curve" smooth="yes"/>
      <point x="862" y="817"/>
      <point x="809" y="919"/>
      <point x="755" y="960" type="curve"/>
      <point x="738" y="961" type="line"/>
      <point x="591" y="903" type="line"/>
      <point x="598" y="875"/>
      <point x="634" y="817"/>
      <point x="634" y="763" type="curve" smooth="yes"/>
      <point x="634" y="517"/>
      <point x="67" y="555"/>
      <point x="67" y="77" type="curve" smooth="yes"/>
      <point x="67" y="-153"/>
      <point x="219" y="-355"/>
      <point x="598" y="-355" type="curve" smooth="yes"/>
      <point x="677" y="-355"/>
      <point x="775" y="-332"/>
      <point x="807" y="-302" type="curve"/>
      <point x="849" y="-117" type="line"/>
      <point x="773" y="-139"/>
      <point x="714" y="-145"/>
      <point x="637" y="-145" type="curve" smooth="yes"/>
      <point x="462" y="-145"/>
      <point x="318" y="-46"/>
    </contour>
    <contour>
      <point x="596" y="1130" type="curve" smooth="yes"/>
      <point x="708" y="1130"/>
      <point x="778" y="1220"/>
      <point x="778" y="1318" type="curve" smooth="yes"/>
      <point x="778" y="1395"/>
      <point x="722" y="1450"/>
      <point x="641" y="1450" type="curve" smooth="yes"/>
      <point x="529" y="1450"/>
      <point x="456" y="1376"/>
      <point x="456" y="1261" type="curve" smooth="yes"/>
      <point x="456" y="1191"/>
      <point x="494" y="1130"/>
    </contour>
  </outline>
</glyph>
<glyph name="Eth" format="1">
  <advance width="1408"/>
  <unicode hex="00D0"/>
  <outline>
    <contour>
      <point x="36" y="698" type="line"/>
      <point x="810" y="698" type="line"/>
      <point x="831" y="888" type="line"/>
      <point x="56" y="888" type="line"/>
    </contour>
    <contour>
      <point x="220" y="1" type="line"/>
      <point x="279" y="1"/>
      <point x="366" y="-4"/>
      <point x="423" y="-8" type="curve" smooth="yes"/>
      <point x="467" y="-12"/>
      <point x="519" y="-15"/>
      <point x="552" y="-15" type="curve" smooth="yes"/>
      <point x="1074" y="-21"/>
      <point x="1368" y="416"/>
      <point x="1363" y="928" type="curve" smooth="yes"/>
      <point x="1360" y="1296"/>
      <point x="1199" y="1547"/>
      <point x="784" y="1547" type="curve" smooth="yes"/>
      <point x="689" y="1547"/>
      <point x="516" y="1531"/>
      <point x="428" y="1531" type="curve"/>
      <point x="535" y="1323" type="line"/>
      <point x="566" y="1334"/>
      <point x="663" y="1344"/>
      <point x="718" y="1344" type="curve" smooth="yes"/>
      <point x="969" y="1344"/>
      <point x="1075" y="1246"/>
      <point x="1078" y="923" type="curve" smooth="yes"/>
      <point x="1081" y="555"/>
      <point x="932" y="196"/>
      <point x="598" y="190" type="curve" smooth="yes"/>
      <point x="518" y="188"/>
      <point x="437" y="201"/>
      <point x="387" y="221" type="curve"/>
    </contour>
    <contour>
      <point x="97" y="1" type="line"/>
      <point x="373" y="1" type="line"/>
      <point x="579" y="1531" type="line"/>
      <point x="303" y="1531" type="line"/>
    </contour>
  </outline>
</glyph>
<glyph name="multiply" format="1">
  <advance width="1384"/>
  <unicode hex="00D7"/>
  <outline>
    <contour>
      <point x="336" y="282" type="line"/>
      <point x="706" y="637" type="line"/>
      <point x="996" y="281" type="line"/>
      <point x="1167" y="435" type="line"/>
      <point x="856" y="767" type="line"/>
      <point x="1244" y="1099" type="line"/>
      <point x="1106" y="1264" type="line"/>
      <point x="732" y="908" type="line"/>
      <point x="446" y="1264" type="line"/>
      <point x="276" y="1110" type="line"/>
      <point x="583" y="778" type="line"/>
      <point x="199" y="446" type="line"/>
    </contour>
  </outline>
</glyph>
<glyph name="Oslash" format="1">
  <advance width="1386"/>
  <unicode hex="00D8"/>
  <outline>
    <contour>
      <point x="99" y="-83" type="line"/>
      <point x="188" y="-132" type="line"/>
      <point x="347" y="114" type="line"/>
      <point x="411" y="185" type="line"/>
      <point x="1068" y="1270" type="line"/>
      <point x="1149" y="1368" type="line"/>
      <point x="1307" y="1621" type="line"/>
      <point x="1218" y="1670" type="line"/>
      <point x="1071" y="1434" type="line"/>
      <point x="990" y="1336" type="line"/>
      <point x="348" y="272" type="line"/>
      <point x="278" y="191" type="line"/>
    </contour>
    <contour>
      <point x="609" y="-15" type="curve" smooth="yes"/>
      <point x="1054" y="-15"/>
      <point x="1339" y="414"/>
      <point x="1335" y="935" type="curve" smooth="yes"/>
      <point x="1332" y="1269"/>
      <point x="1161" y="1547"/>
      <point x="818" y="1547" type="curve" smooth="yes"/>
      <point x="376" y="1547"/>
      <point x="82" y="1121"/>
      <point x="87" y="595" type="curve" smooth="yes"/>
      <point x="90" y="261"/>
      <point x="262" y="-15"/>
    </contour>
    <contour>
      <point x="639" y="194" type="curve" smooth="yes"/>
      <point x="463" y="194"/>
      <point x="376" y="314"/>
      <point x="372" y="623" type="curve" smooth="yes"/>
      <point x="369" y="966"/>
      <point x="530" y="1336"/>
      <point x="783" y="1336" type="curve" smooth="yes"/>
      <point x="959" y="1336"/>
      <point x="1047" y="1219"/>
      <point x="1050" y="910" type="curve" smooth="yes"/>
      <point x="1053" y="554"/>
      <point x="892" y="194"/>
    </contour>
  </outline>
</glyph>
<glyph name="Thorn" format="1">
  <advance width="1258"/>
  <unicode hex="00DE"/>
  <outline>
    <contour>
      <point x="407" y="275" type="line"/>
      <point x="431" y="273"/>
      <point x="496" y="264"/>
      <point x="578" y="264" type="curve" smooth="yes"/>
      <point x="972" y="264"/>
      <point x="1217" y="524"/>
      <point x="1213" y="885" type="curve" smooth="yes"/>
      <point x="1211" y="1158"/>
      <point x="1032" y="1293"/>
      <point x="716" y="1293" type="curve" smooth="yes"/>
      <point x="595" y="1293"/>
      <point x="492" y="1276"/>
      <point x="404" y="1276" type="curve"/>
      <point x="517" y="1082" type="line"/>
      <point x="561" y="1091"/>
      <point x="628" y="1095"/>
      <point x="668" y="1095" type="curve" smooth="yes"/>
      <point x="868" y="1095"/>
      <point x="945" y="1010"/>
      <point x="939" y="861" type="curve" smooth="yes"/>
      <point x="931" y="617"/>
      <point x="821" y="476"/>
      <point x="584" y="475" type="curve" smooth="yes"/>
      <point x="534" y="474"/>
      <point x="465" y="480"/>
      <point x="436" y="488" type="curve"/>
      <point x="343" y="408" type="line"/>
    </contour>
    <contour>
      <point x="93" y="0" type="line"/>
      <point x="373" y="0" type="line"/>
      <point x="576" y="1530" type="line"/>
      <point x="297" y="1530" type="line"/>
    </contour>
  </outline>
</glyph>
<glyph name="germandbls" format="1">
  <advance width="1255"/>
  <unicode hex="00DF"/>
  <outline>
    <contour>
      <point x="71" y="2" type="line"/>
      <point x="342" y="2" type="line"/>
      <point x="455" y="869" type="line" smooth="yes"/>
      <point x="508" y="1288"/>
      <point x="628" y="1406"/>
      <point x="772" y="1406" type="curve" smooth="yes"/>
      <point x="872" y="1406"/>
      <point x="925" y="1344"/>
      <point x="925" y="1269" type="curve" smooth="yes"/>
      <point x="925" y="1163"/>
      <point x="871" y="1088"/>
      <point x="791" y="1011" type="curve" smooth="yes"/>
      <point x="729" y="946"/>
      <point x="674" y="884"/>
      <point x="674" y="789" type="curve" smooth="yes"/>
      <point x="674" y="702"/>
      <point x="744" y="597"/>
      <point x="798" y="527" type="curve" smooth="yes"/>
      <point x="839" y="471"/>
      <point x="894" y="399"/>
      <point x="894" y="324" type="curve" smooth="yes"/>
      <point x="894" y="217"/>
      <point x="832" y="182"/>
      <point x="708" y="181" type="curve" smooth="yes"/>
      <point x="632" y="180"/>
      <point x="544" y="223"/>
      <point x="512" y="257" type="curve"/>
      <point x="487" y="31" type="line"/>
      <point x="531" y="8"/>
      <point x="630" y="-16"/>
      <point x="748" y="-16" type="curve" smooth="yes"/>
      <point x="1015" y="-16"/>
      <point x="1172" y="114"/>
      <point x="1172" y="322" type="curve" smooth="yes"/>
      <point x="1172" y="457"/>
      <point x="1106" y="558"/>
      <point x="1047" y="639" type="curve" smooth="yes"/>
      <point x="988" y="719"/>
      <point x="946" y="777"/>
      <point x="946" y="824" type="curve" smooth="yes"/>
      <point x="946" y="969"/>
      <point x="1190" y="1001"/>
      <point x="1190" y="1290" type="curve" smooth="yes"/>
      <point x="1190" y="1484"/>
      <point x="1038" y="1587"/>
      <point x="826" y="1587" type="curve" smooth="yes"/>
      <point x="587" y="1587"/>
      <point x="274" y="1529"/>
      <point x="192" y="929" type="curve" smooth="yes"/>
    </contour>
  </outline>
</glyph>
<glyph name="divide" format="1">
  <advance width="1368"/>
  <unicode hex="00F7"/>
  <outline>
    <contour>
      <point x="233" y="675" type="line"/>
      <point x="1148" y="675" type="line"/>
      <point x="1174" y="885" type="line"/>
      <point x="260" y="886" type="line"/>
    </contour>
    <contour>
      <point x="736" y="1041" type="curve" smooth="yes"/>
      <point x="839" y="1041"/>
      <point x="925" y="1114"/>
      <point x="930" y="1223" type="curve" smooth="yes"/>
      <point x="934" y="1297"/>
      <point x="894" y="1360"/>
      <point x="789" y="1360" type="curve" smooth="yes"/>
      <point x="687" y="1360"/>
      <point x="602" y="1277"/>
      <point x="597" y="1179" type="curve" smooth="yes"/>
      <point x="593" y="1096"/>
      <point x="653" y="1041"/>
    </contour>
    <contour>
      <point x="632" y="198" type="curve" smooth="yes"/>
      <point x="736" y="198"/>
      <point x="820" y="271"/>
      <point x="825" y="380" type="curve" smooth="yes"/>
      <point x="829" y="454"/>
      <point x="790" y="517"/>
      <point x="685" y="517" type="curve" smooth="yes"/>
      <point x="582" y="517"/>
      <point x="498" y="434"/>
      <point x="493" y="336" type="curve" smooth="yes"/>
      <point x="489" y="253"/>
      <point x="548" y="198"/>
    </contour>
  </outline>
</glyph>
<glyph name="oslash" format="1">
  <advance width="1158"/>
  <unicode hex="00F8"/>
  <outline>
    <contour>
      <point x="86" y="-83" type="line"/>
      <point x="175" y="-132" type="line"/>
      <point x="317" y="84" type="line"/>
      <point x="383" y="159" type="line"/>
      <point x="823" y="918" type="line"/>
      <point x="909" y="1021" type="line"/>
      <point x="1057" y="1254" type="line"/>
      <point x="968" y="1303" type="line"/>
      <point x="833" y="1090" type="line"/>
      <point x="747" y="987" type="line"/>
      <point x="312" y="234" type="line"/>
      <point x="241" y="152" type="line"/>
    </contour>
    <contour>
      <point x="356" y="440" type="curve" smooth="yes"/>
      <point x="353" y="677"/>
      <point x="444" y="978"/>
      <point x="639" y="978" type="curve" smooth="yes"/>
      <point x="747" y="978"/>
      <point x="796" y="888"/>
      <point x="797" y="702" type="curve" smooth="yes"/>
      <point x="800" y="460"/>
      <point x="716" y="167"/>
      <point x="519" y="167" type="curve" smooth="yes"/>
      <point x="412" y="167"/>
      <point x="357" y="259"/>
    </contour>
    <contour>
      <point x="77" y="459" type="curve" smooth="yes"/>
      <point x="80" y="183"/>
      <point x="205" y="-14"/>
      <point x="480" y="-14" type="curve" smooth="yes"/>
      <point x="859" y="-14"/>
      <point x="1082" y="323"/>
      <point x="1079" y="686" type="curve" smooth="yes"/>
      <point x="1076" y="962"/>
      <point x="957" y="1158"/>
      <point x="681" y="1158" type="curve" smooth="yes"/>
      <point x="302" y="1158"/>
      <point x="74" y="822"/>
    </contour>
  </outline>
</glyph>
<glyph name="thorn" format="1">
  <advance width="1227"/>
  <unicode hex="00FE"/>
  <outline>
    <contour>
      <point x="330" y="-139" type="line"/>
      <point x="348" y="21" type="line"/>
      <point x="218" y="62" type="line"/>
      <point x="80" y="-8" type="line"/>
      <point x="10" y="-504" type="line"/>
      <point x="282" y="-504" type="line"/>
    </contour>
    <component base="b"/>
  </outline>
</glyph>
<glyph name="Eogonek" format="1">
  <advance width="1177"/>
  <unicode hex="0118"/>
  <outline>
    <contour>
      <point x="557" y="-299" type="curve" smooth="yes"/>
      <point x="557" y="-383"/>
      <point x="627" y="-473"/>
      <point x="760" y="-473" type="curve" smooth="yes"/>
      <point x="891" y="-473"/>
      <point x="986" y="-424"/>
      <point x="1047" y="-364" type="curve"/>
      <point x="1001" y="-227" type="line"/>
      <point x="945" y="-269"/>
      <point x="905" y="-282"/>
      <point x="860" y="-282" type="curve" smooth="yes"/>
      <point x="829" y="-282"/>
      <point x="795" y="-269"/>
      <point x="795" y="-213" type="curve" smooth="yes"/>
      <point x="795" y="-144"/>
      <point x="916" y="-55"/>
      <point x="1021" y="0" type="curve"/>
      <point x="931" y="40" type="line"/>
      <point x="827" y="4" type="line"/>
      <point x="744" y="-35"/>
      <point x="557" y="-153"/>
    </contour>
    <component base="E" xOffset="6"/>
  </outline>
</glyph>
<glyph name="eogonek" format="1">
  <advance width="1082"/>
  <unicode hex="0119"/>
  <outline>
    <contour>
      <point x="315" y="-299" type="curve" smooth="yes"/>
      <point x="315" y="-383"/>
      <point x="385" y="-473"/>
      <point x="518" y="-473" type="curve" smooth="yes"/>
      <point x="648" y="-473"/>
      <point x="743" y="-424"/>
      <point x="805" y="-364" type="curve"/>
      <point x="759" y="-227" type="line"/>
      <point x="703" y="-269"/>
      <point x="663" y="-282"/>
      <point x="617" y="-282" type="curve" smooth="yes"/>
      <point x="586" y="-282"/>
      <point x="552" y="-269"/>
      <point x="552" y="-213" type="curve" smooth="yes"/>
      <point x="552" y="-144"/>
      <point x="749" y="33"/>
      <point x="840" y="103" type="curve"/>
      <point x="698" y="71" type="line"/>
      <point x="584" y="4" type="line"/>
      <point x="501" y="-35"/>
      <point x="315" y="-158"/>
    </contour>
    <component base="e"/>
  </outline>
</glyph>
<glyph name="Hbar" format="1">
  <advance width="1461"/>
  <unicode hex="0126"/>
  <outline>
    <contour>
      <point x="26" y="958" type="line"/>
      <point x="1557" y="958" type="line"/>
      <point x="1577" y="1158" type="line"/>
      <point x="45" y="1158" type="line"/>
    </contour>
    <contour>
      <point x="97" y="0" type="line"/>
      <point x="373" y="0" type="line"/>
      <point x="579" y="1530" type="line"/>
      <point x="303" y="1530" type="line"/>
    </contour>
    <contour>
      <point x="941" y="0" type="line"/>
      <point x="1219" y="0" type="line"/>
      <point x="1425" y="1530" type="line"/>
      <point x="1147" y="1530" type="line"/>
    </contour>
    <contour>
      <point x="369" y="517" type="line"/>
      <point x="1167" y="517" type="line"/>
      <point x="1175" y="717" type="line"/>
      <point x="376" y="717" type="line"/>
    </contour>
    <contour>
      <point x="820" y="-168" type="move" name="btm"/>
    </contour>
    <contour>
      <point x="879" y="1700" type="move" name="top"/>
    </contour>
  </outline>
</glyph>
<glyph name="Iogonek" format="1">
  <advance width="643"/>
  <unicode hex="012E"/>
  <outline>
    <contour>
      <point x="128" y="4" type="line"/>
      <point x="45" y="-35"/>
      <point x="-142" y="-153"/>
      <point x="-142" y="-299" type="curve" smooth="yes"/>
      <point x="-142" y="-383"/>
      <point x="-72" y="-473"/>
      <point x="61" y="-473" type="curve" smooth="yes"/>
      <point x="192" y="-473"/>
      <point x="287" y="-424"/>
      <point x="348" y="-364" type="curve"/>
      <point x="302" y="-227" type="line"/>
      <point x="246" y="-269"/>
      <point x="206" y="-282"/>
      <point x="161" y="-282" type="curve" smooth="yes"/>
      <point x="130" y="-282"/>
      <point x="96" y="-269"/>
      <point x="96" y="-213" type="curve" smooth="yes"/>
      <point x="96" y="-144"/>
      <point x="217" y="-55"/>
      <point x="322" y="0" type="curve"/>
      <point x="232" y="40" type="line"/>
    </contour>
    <component base="I"/>
  </outline>
</glyph>
<glyph name="idotless" format="1">
  <advance width="624"/>
  <unicode hex="0131"/>
  <outline>
    <contour>
      <point x="102" y="0" type="line"/>
      <point x="378" y="0" type="line"/>
      <point x="535" y="1140" type="line"/>
      <point x="258" y="1140" type="line"/>
    </contour>
    <contour>
      <point x="431" y="1257" type="move" name="top"/>
    </contour>
    <contour>
      <point x="492" y="65" type="move" name="bottom"/>
    </contour>
  </outline>
</glyph>
<glyph name="kgreenlandic" format="1">
  <advance width="1133"/>
  <unicode hex="0138"/>
  <outline>
    <contour>
      <point x="80" y="0" type="line"/>
      <point x="356" y="0" type="line"/>
      <point x="511" y="1148" type="line"/>
      <point x="236" y="1148" type="line"/>
    </contour>
    <contour>
      <point x="473" y="630" type="line"/>
      <point x="784" y="0" type="line"/>
      <point x="1090" y="0" type="line"/>
      <point x="700" y="694" type="line"/>
    </contour>
    <contour>
      <point x="689" y="585" type="line"/>
      <point x="792" y="614"/>
      <point x="1011" y="775"/>
      <point x="1100" y="996" type="curve" smooth="yes"/>
      <point x="1120" y="1044"/>
      <point x="1133" y="1095"/>
      <point x="1137" y="1148" type="curve"/>
      <point x="867" y="1148" type="line"/>
      <point x="851" y="1094"/>
      <point x="831" y="1044"/>
      <point x="807" y="995" type="curve" smooth="yes"/>
      <point x="721" y="828"/>
      <point x="613" y="709"/>
      <point x="473" y="631" type="curve"/>
    </contour>
    <contour>
      <point x="580" y="-128" type="move" name="bottom"/>
    </contour>
  </outline>
</glyph>
<glyph name="Lslash" format="1">
  <advance width="1029"/>
  <unicode hex="0141"/>
  <outline>
    <contour>
      <point x="6" y="488" type="line"/>
      <point x="897" y="825" type="line"/>
      <point x="851" y="985" type="line"/>
      <point x="-41" y="639" type="line"/>
    </contour>
    <component base="L" xOffset="6" yOffset="1"/>
  </outline>
</glyph>
<glyph name="lslash" format="1">
  <advance width="625"/>
  <unicode hex="0142"/>
  <outline>
    <contour>
      <point x="41" y="719" type="line"/>
      <point x="683" y="972" type="line"/>
      <point x="683" y="1149" type="line"/>
      <point x="41" y="886" type="line"/>
    </contour>
    <component base="l"/>
  </outline>
</glyph>
<glyph name="Eng" format="1">
  <advance width="1514"/>
  <unicode hex="014A"/>
  <outline>
    <contour>
      <point x="652" y="-257" type="curve"/>
      <point x="698" y="-365" type="line"/>
      <point x="972" y="-335"/>
      <point x="1153" y="-194"/>
      <point x="1212" y="0" type="curve"/>
      <point x="966" y="86" type="line"/>
      <point x="943" y="-65"/>
      <point x="856" y="-181"/>
    </contour>
    <component base="N" xOffset="6"/>
  </outline>
</glyph>
<glyph name="eng" format="1">
  <advance width="1258"/>
  <unicode hex="014B"/>
  <outline>
    <contour>
      <point x="405" y="-385" type="curve"/>
      <point x="368" y="-486" type="line"/>
      <point x="390" y="-510"/>
      <point x="468" y="-523"/>
      <point x="536" y="-523" type="curve" smooth="yes"/>
      <point x="799" y="-523"/>
      <point x="959" y="-392"/>
      <point x="1022" y="0" type="curve" smooth="yes"/>
      <point x="1067" y="283"/>
      <point x="1136" y="749"/>
      <point x="1136" y="860" type="curve" smooth="yes"/>
      <point x="1136" y="1076"/>
      <point x="1047" y="1156"/>
      <point x="887" y="1156" type="curve" smooth="yes"/>
      <point x="676" y="1156"/>
      <point x="482" y="979"/>
      <point x="395" y="779" type="curve"/>
      <point x="413" y="638" type="line"/>
      <point x="483" y="790"/>
      <point x="649" y="931"/>
      <point x="758" y="931" type="curve" smooth="yes"/>
      <point x="818" y="931"/>
      <point x="853" y="911"/>
      <point x="851" y="821" type="curve" smooth="yes"/>
      <point x="847" y="670"/>
      <point x="793" y="312"/>
      <point x="750" y="33" type="curve" smooth="yes"/>
      <point x="713" y="-214"/>
      <point x="651" y="-397"/>
      <point x="477" y="-397" type="curve" smooth="yes"/>
      <point x="466" y="-397"/>
      <point x="423" y="-393"/>
    </contour>
    <contour>
      <point x="80" y="0" type="line"/>
      <point x="356" y="0" type="line"/>
      <point x="481" y="912" type="line"/>
      <point x="498" y="1140" type="line"/>
      <point x="235" y="1140" type="line"/>
    </contour>
  </outline>
</glyph>
<glyph name="OE" format="1">
  <advance width="2159"/>
  <unicode hex="0152"/>
  <outline>
    <contour>
      <point x="87" y="594" type="curve" smooth="yes"/>
      <point x="90" y="260"/>
      <point x="262" y="-16"/>
      <point x="609" y="-16" type="curve" smooth="yes"/>
      <point x="1054" y="-16"/>
      <point x="1329" y="413"/>
      <point x="1325" y="934" type="curve" smooth="yes"/>
      <point x="1322" y="1268"/>
      <point x="1161" y="1546"/>
      <point x="818" y="1546" type="curve" smooth="yes"/>
      <point x="376" y="1546"/>
      <point x="82" y="1120"/>
    </contour>
    <contour>
      <point x="372" y="622" type="curve" smooth="yes"/>
      <point x="369" y="965"/>
      <point x="530" y="1335"/>
      <point x="783" y="1335" type="curve" smooth="yes"/>
      <point x="959" y="1335"/>
      <point x="1047" y="1218"/>
      <point x="1050" y="909" type="curve" smooth="yes"/>
      <point x="1053" y="553"/>
      <point x="892" y="193"/>
      <point x="639" y="193" type="curve" smooth="yes"/>
      <point x="463" y="193"/>
      <point x="376" y="313"/>
    </contour>
    <component base="E" xOffset="986"/>
  </outline>
</glyph>
<glyph name="oe" format="1">
  <advance width="1770"/>
  <unicode hex="0153"/>
  <outline>
    <contour>
      <point x="480" y="-16" type="curve" smooth="yes"/>
      <point x="668" y="-16"/>
      <point x="813" y="73"/>
      <point x="915" y="208" type="curve"/>
      <point x="782" y="521" type="line"/>
      <point x="751" y="333"/>
      <point x="667" y="165"/>
      <point x="519" y="165" type="curve" smooth="yes"/>
      <point x="412" y="165"/>
      <point x="357" y="252"/>
      <point x="356" y="433" type="curve" smooth="yes"/>
      <point x="353" y="668"/>
      <point x="439" y="976"/>
      <point x="634" y="976" type="curve" smooth="yes"/>
      <point x="742" y="976"/>
      <point x="796" y="895"/>
      <point x="797" y="712" type="curve" smooth="yes"/>
      <point x="798" y="670"/>
      <point x="795" y="628"/>
      <point x="791" y="584" type="curve"/>
      <point x="1036" y="906" type="line"/>
      <point x="983" y="1062"/>
      <point x="868" y="1156"/>
      <point x="676" y="1156" type="curve" smooth="yes"/>
      <point x="297" y="1156"/>
      <point x="74" y="812"/>
      <point x="77" y="452" type="curve" smooth="yes"/>
      <point x="80" y="176"/>
      <point x="205" y="-16"/>
    </contour>
    <contour>
      <point x="776" y="438" type="curve" smooth="yes"/>
      <point x="773" y="206"/>
      <point x="893" y="-16"/>
      <point x="1189" y="-16" type="curve" smooth="yes"/>
      <point x="1416" y="-16"/>
      <point x="1587" y="120"/>
      <point x="1645" y="202" type="curve"/>
      <point x="1572" y="343" type="line"/>
      <point x="1490" y="257"/>
      <point x="1358" y="182"/>
      <point x="1244" y="182" type="curve" smooth="yes"/>
      <point x="1093" y="182"/>
      <point x="1064" y="295"/>
      <point x="1067" y="404" type="curve"/>
      <point x="1348" y="454"/>
      <point x="1707" y="584"/>
      <point x="1707" y="900" type="curve" smooth="yes"/>
      <point x="1707" y="1051"/>
      <point x="1610" y="1156"/>
      <point x="1396" y="1156" type="curve" smooth="yes"/>
      <point x="1041" y="1156"/>
      <point x="781" y="846"/>
    </contour>
    <contour>
      <point x="1067" y="563" type="curve"/>
      <point x="1078" y="721"/>
      <point x="1170" y="984"/>
      <point x="1335" y="984" type="curve" smooth="yes"/>
      <point x="1399" y="984"/>
      <point x="1437" y="955"/>
      <point x="1437" y="874" type="curve" smooth="yes"/>
      <point x="1437" y="695"/>
      <point x="1207" y="570"/>
    </contour>
  </outline>
</glyph>
<glyph name="Tbar" format="1">
  <advance width="1144"/>
  <unicode hex="0166"/>
  <outline>
    <contour>
      <point x="196" y="679" type="line"/>
      <point x="985" y="679" type="line"/>
      <point x="1008" y="869" type="line"/>
      <point x="219" y="869" type="line"/>
    </contour>
    <contour>
      <point x="619" y="-170" type="move" name="btm"/>
    </contour>
    <contour>
      <point x="830" y="1700" type="move" name="top"/>
    </contour>
    <component base="T" xOffset="6"/>
  </outline>
</glyph>
<glyph name="tbar" format="1">
  <advance width="790"/>
  <unicode hex="0167"/>
  <outline>
    <contour>
      <point x="99" y="621" type="line"/>
      <point x="681" y="621" type="line"/>
      <point x="697" y="751" type="line"/>
      <point x="115" y="751" type="line"/>
    </contour>
    <component base="t"/>
  </outline>
</glyph>
<glyph name="Uogonek" format="1">
  <advance width="1408"/>
  <unicode hex="0172"/>
  <outline>
    <contour>
      <point x="476" y="-299" type="curve" smooth="yes"/>
      <point x="476" y="-383"/>
      <point x="546" y="-473"/>
      <point x="679" y="-473" type="curve" smooth="yes"/>
      <point x="809" y="-473"/>
      <point x="904" y="-424"/>
      <point x="966" y="-364" type="curve"/>
      <point x="920" y="-227" type="line"/>
      <point x="864" y="-269"/>
      <point x="824" y="-282"/>
      <point x="778" y="-282" type="curve" smooth="yes"/>
      <point x="747" y="-282"/>
      <point x="713" y="-269"/>
      <point x="713" y="-213" type="curve" smooth="yes"/>
      <point x="713" y="-144"/>
      <point x="910" y="33"/>
      <point x="1001" y="103" type="curve"/>
      <point x="859" y="71" type="line"/>
      <point x="745" y="4" type="line"/>
      <point x="662" y="-35"/>
      <point x="476" y="-158"/>
    </contour>
    <component base="U" xOffset="6"/>
  </outline>
</glyph>
<glyph name="uogonek" format="1">
  <advance width="1237"/>
  <unicode hex="0173"/>
  <outline>
    <contour>
      <point x="521" y="-299" type="curve" smooth="yes"/>
      <point x="521" y="-383"/>
      <point x="591" y="-473"/>
      <point x="724" y="-473" type="curve" smooth="yes"/>
      <point x="855" y="-473"/>
      <point x="950" y="-424"/>
      <point x="1011" y="-364" type="curve"/>
      <point x="965" y="-227" type="line"/>
      <point x="909" y="-269"/>
      <point x="869" y="-282"/>
      <point x="824" y="-282" type="curve" smooth="yes"/>
      <point x="793" y="-282"/>
      <point x="759" y="-269"/>
      <point x="759" y="-213" type="curve" smooth="yes"/>
      <point x="759" y="-144"/>
      <point x="880" y="-55"/>
      <point x="985" y="0" type="curve"/>
      <point x="895" y="40" type="line"/>
      <point x="791" y="4" type="line"/>
      <point x="708" y="-35"/>
      <point x="521" y="-153"/>
    </contour>
    <component base="u"/>
  </outline>
</glyph>
<glyph name="dotlessj" format="1">
  <advance width="622"/>
  <unicode hex="0237"/>
  <outline>
    <contour>
      <point x="110" y="67" type="line"/>
      <point x="79" y="-155"/>
      <point x="43" y="-350"/>
      <point x="-136" y="-350" type="curve" smooth="yes"/>
      <point x="-144" y="-350"/>
      <point x="-170" y="-348"/>
      <point x="-182" y="-339" type="curve"/>
      <point x="-252" y="-485" type="line"/>
      <point x="-224" y="-505"/>
      <point x="-166" y="-521"/>
      <point x="-95" y="-521" type="curve" smooth="yes"/>
      <point x="137" y="-521"/>
      <point x="333" y="-331"/>
      <point x="378" y="2" type="curve" smooth="yes"/>
      <point x="534" y="1140" type="line"/>
      <point x="257" y="1140" type="line"/>
    </contour>
    <contour>
      <point x="417" y="1257" type="move" name="top"/>
    </contour>
  </outline>
</glyph>
<glyph name="circumflex" format="1">
  <advance width="799"/>
  <unicode hex="02C6"/>
  <outline>
    <contour>
      <point x="150" y="1214" type="line"/>
      <point x="451" y="1437" type="line"/>
      <point x="647" y="1218" type="line"/>
      <point x="771" y="1286" type="line"/>
      <point x="570" y="1660" type="line"/>
      <point x="391" y="1660" type="line"/>
      <point x="42" y="1286" type="line"/>
    </contour>
    <contour>
      <point x="413" y="1255" type="move" name="_top"/>
    </contour>
  </outline>
</glyph>
<glyph name="ring" format="1">
  <advance width="726"/>
  <unicode hex="02DA"/>
  <outline>
    <contour>
      <point x="373" y="1253" type="curve" smooth="yes"/>
      <point x="553" y="1253"/>
      <point x="732" y="1347"/>
      <point x="732" y="1544" type="curve" smooth="yes"/>
      <point x="732" y="1709"/>
      <point x="614" y="1795"/>
      <point x="441" y="1795" type="curve" smooth="yes"/>
      <point x="283" y="1795"/>
      <point x="73" y="1714"/>
      <point x="73" y="1504" type="curve" smooth="yes"/>
      <point x="73" y="1343"/>
      <point x="186" y="1253"/>
    </contour>
    <contour>
      <point x="386" y="1378" type="curve" smooth="yes"/>
      <point x="308" y="1378"/>
      <point x="240" y="1437"/>
      <point x="240" y="1513" type="curve" smooth="yes"/>
      <point x="240" y="1635"/>
      <point x="337" y="1671"/>
      <point x="421" y="1671" type="curve" smooth="yes"/>
      <point x="501" y="1671"/>
      <point x="564" y="1616"/>
      <point x="564" y="1539" type="curve" smooth="yes"/>
      <point x="564" y="1408"/>
      <point x="476" y="1378"/>
    </contour>
    <contour>
      <point x="356" y="1255" type="move" name="_top"/>
    </contour>
  </outline>
</glyph>
<glyph name="hungarumlaut" format="1">
  <advance width="922"/>
  <unicode hex="02DD"/>
  <outline>
    <contour>
      <point x="212" y="1233" type="line"/>
      <point x="310" y="1285"/>
      <point x="482" y="1493"/>
      <point x="523" y="1606" type="curve"/>
      <point x="346" y="1733" type="line"/>
      <point x="95" y="1301" type="line"/>
    </contour>
    <contour>
      <point x="664" y="1233" type="line"/>
      <point x="756" y="1275"/>
      <point x="953" y="1497"/>
      <point x="990" y="1602" type="curve"/>
      <point x="810" y="1733" type="line"/>
      <point x="552" y="1301" type="line"/>
    </contour>
    <contour>
      <point x="437" y="1255" type="move" name="_top"/>
    </contour>
  </outline>
</glyph>
<glyph name="endash" format="1">
  <advance width="1538"/>
  <unicode hex="2013"/>
  <outline>
    <contour>
      <point x="221" y="671" type="line"/>
      <point x="1319" y="671" type="line"/>
      <point x="1352" y="874" type="line"/>
      <point x="254" y="874" type="line"/>
    </contour>
  </outline>
</glyph>
<glyph name="emdash" format="1">
  <advance width="2061"/>
  <unicode hex="2014"/>
  <outline>
    <contour>
      <point x="221" y="671" type="line"/>
      <point x="1842" y="671" type="line"/>
      <point x="1875" y="874" type="line"/>
      <point x="254" y="874" type="line"/>
    </contour>
  </outline>
</glyph>
<glyph name="quotereversed" format="1">
  <advance width="685"/>
  <unicode hex="201B"/>
  <outline>
    <contour>
      <point x="416" y="891" type="curve"/>
      <point x="533" y="993" type="line"/>
      <point x="537" y="1015" type="line"/>
      <point x="485" y="1061"/>
      <point x="423" y="1184"/>
      <point x="444" y="1318" type="curve" smooth="yes"/>
      <point x="454" y="1412"/>
      <point x="508" y="1496"/>
      <point x="589" y="1529" type="curve"/>
      <point x="595" y="1570" type="line"/>
      <point x="483" y="1744" type="line"/>
      <point x="371" y="1729"/>
      <point x="228" y="1599"/>
      <point x="207" y="1411" type="curve" smooth="yes"/>
      <point x="170" y="1169"/>
      <point x="297" y="990"/>
    </contour>
  </outline>
</glyph>
<glyph name="dagger" format="1">
  <advance width="815"/>
  <unicode hex="2020"/>
  <outline>
    <contour>
      <point x="270" y="151" type="line"/>
      <point x="437" y="151" type="line"/>
      <point x="586" y="976" type="line"/>
      <point x="597" y="1095" type="line"/>
      <point x="853" y="1095" type="line"/>
      <point x="880" y="1277" type="line"/>
      <point x="607" y="1277" type="line"/>
      <point x="658" y="1469" type="line"/>
      <point x="688" y="1646" type="line"/>
      <point x="468" y="1646" type="line"/>
      <point x="444" y="1469" type="line"/>
      <point x="432" y="1277" type="line"/>
      <point x="157" y="1277" type="line"/>
      <point x="129" y="1095" type="line"/>
      <point x="388" y="1095" type="line"/>
      <point x="367" y="976" type="line"/>
    </contour>
  </outline>
</glyph>
<glyph name="daggerdbl" format="1">
  <advance width="815"/>
  <unicode hex="2021"/>
  <outline>
    <contour>
      <point x="259" y="-51" type="line"/>
      <point x="403" y="-51" type="line"/>
      <point x="512" y="431" type="line"/>
      <point x="527" y="603" type="line"/>
      <point x="766" y="603" type="line"/>
      <point x="790" y="779" type="line"/>
      <point x="549" y="779" type="line"/>
      <point x="592" y="963" type="line"/>
      <point x="603" y="1095" type="line"/>
      <point x="853" y="1095" type="line"/>
      <point x="880" y="1277" type="line"/>
      <point x="614" y="1277" type="line"/>
      <point x="664" y="1469" type="line"/>
      <point x="694" y="1646" type="line"/>
      <point x="474" y="1646" type="line"/>
      <point x="450" y="1469" type="line"/>
      <point x="438" y="1277" type="line"/>
      <point x="178" y="1277" type="line"/>
      <point x="152" y="1095" type="line"/>
      <point x="395" y="1095" type="line"/>
      <point x="367" y="963" type="line"/>
      <point x="357" y="779" type="line"/>
      <point x="124" y="779" type="line"/>
      <point x="97" y="603" type="line"/>
      <point x="326" y="603" type="line"/>
      <point x="292" y="425" type="line"/>
    </contour>
  </outline>
</glyph>
<glyph name="ellipsis" format="1">
  <advance width="1579"/>
  <unicode hex="2026"/>
  <outline>
    <contour>
      <point x="59" y="113" type="curve" smooth="yes"/>
      <point x="54" y="30"/>
      <point x="108" y="-26"/>
      <point x="192" y="-26" type="curve" smooth="yes"/>
      <point x="296" y="-26"/>
      <point x="377" y="47"/>
      <point x="383" y="157" type="curve" smooth="yes"/>
      <point x="387" y="231"/>
      <point x="349" y="294"/>
      <point x="242" y="294" type="curve" smooth="yes"/>
      <point x="140" y="294"/>
      <point x="65" y="211"/>
    </contour>
    <contour>
      <point x="585" y="113" type="curve" smooth="yes"/>
      <point x="580" y="30"/>
      <point x="634" y="-26"/>
      <point x="718" y="-26" type="curve" smooth="yes"/>
      <point x="822" y="-26"/>
      <point x="903" y="47"/>
      <point x="909" y="157" type="curve" smooth="yes"/>
      <point x="913" y="231"/>
      <point x="875" y="294"/>
      <point x="768" y="294" type="curve" smooth="yes"/>
      <point x="666" y="294"/>
      <point x="591" y="211"/>
    </contour>
    <contour>
      <point x="1111" y="113" type="curve" smooth="yes"/>
      <point x="1106" y="30"/>
      <point x="1160" y="-26"/>
      <point x="1244" y="-26" type="curve" smooth="yes"/>
      <point x="1348" y="-26"/>
      <point x="1429" y="47"/>
      <point x="1435" y="157" type="curve" smooth="yes"/>
      <point x="1439" y="231"/>
      <point x="1401" y="294"/>
      <point x="1294" y="294" type="curve" smooth="yes"/>
      <point x="1192" y="294"/>
      <point x="1117" y="211"/>
    </contour>
  </outline>
</glyph>
<glyph name="colonmonetary" format="1">
  <advance width="1390"/>
  <unicode hex="20A1"/>
  <outline>
    <contour>
      <point x="748" y="1290" type="curve" name="hr01"/>
      <point x="575" y="252" type="line"/>
      <point x="492" y="334"/>
      <point x="459" y="479"/>
      <point x="463" y="661" type="curve" smooth="yes"/>
      <point x="469" y="964"/>
      <point x="572" y="1194"/>
    </contour>
    <contour>
      <point x="988" y="1338" type="curve"/>
      <point x="795" y="179" type="line" name="hr02"/>
      <point x="787" y="179"/>
      <point x="778" y="179"/>
      <point x="770" y="179" type="curve" smooth="yes"/>
      <point x="736" y="179"/>
      <point x="705" y="183"/>
      <point x="677" y="192" type="curve"/>
      <point x="867" y="1332" type="line"/>
      <point x="893" y="1337"/>
      <point x="919" y="1339"/>
      <point x="947" y="1339" type="curve" smooth="yes"/>
      <point x="961" y="1339"/>
      <point x="975" y="1339"/>
    </contour>
    <contour>
      <point x="818" y="-346" type="line"/>
      <point x="875" y="-6" type="line"/>
      <point x="1032" y="14"/>
      <point x="1149" y="66"/>
      <point x="1212" y="127" type="curve"/>
      <point x="1148" y="285" type="line"/>
      <point x="1079" y="241"/>
      <point x="1007" y="206"/>
      <point x="908" y="190" type="curve"/>
      <point x="1097" y="1324" type="line"/>
      <point x="1185" y="1307"/>
      <point x="1252" y="1279"/>
      <point x="1271" y="1261" type="curve"/>
      <point x="1341" y="1482" type="line"/>
      <point x="1288" y="1497"/>
      <point x="1221" y="1519"/>
      <point x="1132" y="1533" type="curve"/>
      <point x="1179" y="1814" type="line"/>
      <point x="1068" y="1814" type="line"/>
      <point x="1023" y="1545" type="line"/>
      <point x="1004" y="1545"/>
      <point x="985" y="1546"/>
      <point x="965" y="1546" type="curve" smooth="yes"/>
      <point x="944" y="1546"/>
      <point x="923" y="1545"/>
      <point x="903" y="1544" type="curve"/>
      <point x="948" y="1814" type="line"/>
      <point x="836" y="1814" type="line"/>
      <point x="788" y="1527" type="line"/>
      <point x="425" y="1445"/>
      <point x="171" y="1110"/>
      <point x="171" y="644" type="curve" smooth="yes"/>
      <point x="171" y="382"/>
      <point x="267" y="100"/>
      <point x="535" y="12" type="curve"/>
      <point x="475" y="-346" type="line"/>
      <point x="587" y="-346" type="line"/>
      <point x="643" y="-12" type="line"/>
      <point x="668" y="-14"/>
      <point x="694" y="-16"/>
      <point x="721" y="-16" type="curve" smooth="yes" name="hr04"/>
      <point x="735" y="-16"/>
      <point x="749" y="-16"/>
      <point x="762" y="-15" type="curve"/>
      <point x="707" y="-346" type="line"/>
    </contour>
  </outline>
</glyph>
<glyph name="franc" format="1">
  <advance width="1140"/>
  <unicode hex="20A3"/>
  <outline>
    <contour>
      <point x="-27" y="228" type="line" name="hr00"/>
      <point x="182" y="228" type="line"/>
      <point x="151" y="0" type="line"/>
      <point x="436" y="0" type="line"/>
      <point x="467" y="228" type="line"/>
      <point x="753" y="228" type="line"/>
      <point x="773" y="402" type="line"/>
      <point x="490" y="402" type="line"/>
      <point x="524" y="653" type="line"/>
      <point x="976" y="642" type="line"/>
      <point x="1001" y="879" type="line"/>
      <point x="555" y="872" type="line"/>
      <point x="613" y="1313" type="line"/>
      <point x="1142" y="1307" type="line"/>
      <point x="1172" y="1530" type="line"/>
      <point x="358" y="1530" type="line"/>
      <point x="205" y="402" type="line"/>
      <point x="-8" y="402" type="line"/>
    </contour>
  </outline>
</glyph>
<glyph name="lira" format="1">
  <advance width="1504"/>
  <unicode hex="20A4"/>
  <outline>
    <contour>
      <point x="-3" y="81" type="curve" name="hr00" smooth="yes"/>
      <point x="-3" y="20"/>
      <point x="43" y="-20"/>
      <point x="124" y="-20" type="curve" smooth="yes"/>
      <point x="198" y="-20"/>
      <point x="292" y="26"/>
      <point x="345" y="92" type="curve"/>
      <point x="504" y="68"/>
      <point x="680" y="-20"/>
      <point x="924" y="-20" type="curve" smooth="yes"/>
      <point x="1363" y="-20"/>
      <point x="1423" y="229"/>
      <point x="1423" y="370" type="curve"/>
      <point x="1424" y="474"/>
      <point x="1349" y="587"/>
      <point x="1257" y="642" type="curve"/>
      <point x="1071" y="495" type="line"/>
      <point x="1105" y="476"/>
      <point x="1151" y="413"/>
      <point x="1151" y="358" type="curve" smooth="yes"/>
      <point x="1151" y="256"/>
      <point x="1102" y="185"/>
      <point x="866" y="185" type="curve" smooth="yes"/>
      <point x="744" y="185"/>
      <point x="588" y="205"/>
      <point x="505" y="231" type="curve"/>
      <point x="562" y="310"/>
      <point x="621" y="405"/>
      <point x="652" y="582" type="curve"/>
      <point x="945" y="582" type="line"/>
      <point x="961" y="731" type="line"/>
      <point x="674" y="731" type="line"/>
      <point x="696" y="878" type="line"/>
      <point x="1004" y="878" type="line"/>
      <point x="1020" y="1027" type="line"/>
      <point x="718" y="1027" type="line"/>
      <point x="721" y="1051" type="line" smooth="yes"/>
      <point x="759" y="1312"/>
      <point x="831" y="1343"/>
      <point x="968" y="1343" type="curve" smooth="yes"/>
      <point x="1091" y="1343"/>
      <point x="1172" y="1254"/>
      <point x="1184" y="1230" type="curve"/>
      <point x="1317" y="1443" type="line"/>
      <point x="1267" y="1491"/>
      <point x="1146" y="1545"/>
      <point x="972" y="1545" type="curve" smooth="yes"/>
      <point x="626" y="1545"/>
      <point x="468" y="1291"/>
      <point x="429" y="1041" type="curve" smooth="yes"/>
      <point x="427" y="1027" type="line"/>
      <point x="242" y="1027" type="line"/>
      <point x="227" y="878" type="line"/>
      <point x="404" y="878" type="line"/>
      <point x="382" y="731" type="line"/>
      <point x="184" y="731" type="line"/>
      <point x="167" y="582" type="line"/>
      <point x="360" y="582" type="line"/>
      <point x="345" y="486" type="line" smooth="yes"/>
      <point x="331" y="398"/>
      <point x="302" y="297"/>
      <point x="262" y="260" type="curve"/>
      <point x="149" y="260"/>
      <point x="-3" y="191"/>
    </contour>
  </outline>
</glyph>
<glyph name="uni20A6" format="1">
  <advance width="1700"/>
  <unicode hex="20A6"/>
  <outline>
    <contour>
      <point x="1171" y="418" type="line" name="hr00"/>
      <point x="1165" y="335" type="line"/>
      <point x="1132" y="418" type="line"/>
    </contour>
    <contour>
      <point x="1220" y="953" type="line"/>
      <point x="1187" y="690" type="line"/>
      <point x="1180" y="565" type="line"/>
      <point x="1074" y="565" type="line"/>
      <point x="1058" y="603" type="line"/>
      <point x="899" y="953" type="line"/>
    </contour>
    <contour>
      <point x="583" y="1100" type="line"/>
      <point x="588" y="1175" type="line"/>
      <point x="620" y="1100" type="line"/>
    </contour>
    <contour>
      <point x="535" y="565" type="line"/>
      <point x="566" y="813" type="line"/>
      <point x="574" y="953" type="line"/>
      <point x="683" y="953" type="line"/>
      <point x="708" y="894" type="line"/>
      <point x="856" y="565" type="line"/>
    </contour>
    <contour>
      <point x="215" y="0" type="line"/>
      <point x="464" y="0" type="line"/>
      <point x="517" y="418" type="line"/>
      <point x="922" y="418" type="line"/>
      <point x="1110" y="0" type="line"/>
      <point x="1349" y="0" type="line"/>
      <point x="1401" y="418" type="line"/>
      <point x="1618" y="418" type="line"/>
      <point x="1636" y="565" type="line"/>
      <point x="1420" y="565" type="line"/>
      <point x="1469" y="953" type="line"/>
      <point x="1704" y="953" type="line"/>
      <point x="1722" y="1100" type="line"/>
      <point x="1488" y="1100" type="line"/>
      <point x="1541" y="1522" type="line"/>
      <point x="1291" y="1522" type="line"/>
      <point x="1238" y="1100" type="line"/>
      <point x="832" y="1100" type="line"/>
      <point x="639" y="1522" type="line"/>
      <point x="407" y="1522" type="line"/>
      <point x="354" y="1100" type="line"/>
      <point x="127" y="1100" type="line"/>
      <point x="109" y="953" type="line"/>
      <point x="335" y="953" type="line"/>
      <point x="286" y="565" type="line"/>
      <point x="49" y="565" type="line"/>
      <point x="31" y="418" type="line"/>
      <point x="267" y="418" type="line"/>
    </contour>
  </outline>
</glyph>
<glyph name="peseta" format="1">
  <advance width="1566"/>
  <unicode hex="20A7"/>
  <outline>
    <contour>
      <point x="1124" y="1083" type="curve" name="hr01"/>
      <point x="635" y="1083" type="line"/>
      <point x="667" y="1321" type="line"/>
      <point x="723" y="1331"/>
      <point x="809" y="1337"/>
      <point x="864" y="1338" type="curve"/>
      <point x="1053" y="1339"/>
      <point x="1134" y="1246"/>
    </contour>
    <contour>
      <point x="616" y="936" type="line"/>
      <point x="1101" y="936" type="line"/>
      <point x="1054" y="773"/>
      <point x="942" y="696"/>
      <point x="771" y="695" type="curve" smooth="yes"/>
      <point x="700" y="695"/>
      <point x="630" y="699"/>
      <point x="585" y="706" type="curve"/>
    </contour>
    <contour>
      <point x="143" y="936" type="line"/>
      <point x="324" y="936" type="line"/>
      <point x="198" y="0" type="line"/>
      <point x="491" y="0" type="line"/>
      <point x="556" y="491" type="line"/>
      <point x="590" y="489"/>
      <point x="652" y="485"/>
      <point x="748" y="485" type="curve" smooth="yes"/>
      <point x="1085" y="485"/>
      <point x="1317" y="648"/>
      <point x="1389" y="936" type="curve"/>
      <point x="1580" y="936" type="line"/>
      <point x="1600" y="1083" type="line"/>
      <point x="1411" y="1083" type="line"/>
      <point x="1436" y="1412"/>
      <point x="1251" y="1542"/>
      <point x="921" y="1542" type="curve" smooth="yes" name="hr02"/>
      <point x="783" y="1542"/>
      <point x="656" y="1526"/>
      <point x="551" y="1526" type="curve" smooth="yes" name="hr03"/>
      <point x="403" y="1526" type="line"/>
      <point x="343" y="1083" type="line"/>
      <point x="163" y="1083" type="line"/>
    </contour>
  </outline>
</glyph>
<glyph name="won" format="1">
  <advance width="1674"/>
  <unicode hex="20A9"/>
  <outline>
    <contour>
      <point x="616" y="665" type="line" name="hr00"/>
      <point x="458" y="665" type="line"/>
      <point x="434" y="938" type="line"/>
      <point x="716" y="938" type="line"/>
    </contour>
    <contour>
      <point x="894" y="665" type="line"/>
      <point x="820" y="665" type="line"/>
      <point x="825" y="680" type="line"/>
      <point x="878" y="850" type="line"/>
      <point x="893" y="680" type="line"/>
    </contour>
    <contour>
      <point x="1246" y="665" type="line"/>
      <point x="1101" y="665" type="line"/>
      <point x="1079" y="938" type="line"/>
      <point x="1334" y="938" type="line"/>
    </contour>
    <contour>
      <point x="1113" y="505" type="line"/>
      <point x="1193" y="505" type="line"/>
      <point x="1192" y="499" type="line"/>
      <point x="1135" y="250" type="line"/>
      <point x="1113" y="500" type="line"/>
    </contour>
    <contour>
      <point x="472" y="505" type="line"/>
      <point x="557" y="505" type="line"/>
      <point x="555" y="499" type="line"/>
      <point x="488" y="250" type="line"/>
      <point x="473" y="500" type="line"/>
    </contour>
    <contour>
      <point x="-44" y="505" type="line"/>
      <point x="256" y="505" type="line"/>
      <point x="315" y="-4" type="line"/>
      <point x="585" y="-4" type="line"/>
      <point x="764" y="505" type="line"/>
      <point x="907" y="505" type="line"/>
      <point x="950" y="-4" type="line"/>
      <point x="1238" y="-4" type="line"/>
      <point x="1417" y="505" type="line"/>
      <point x="1681" y="505" type="line"/>
      <point x="1697" y="665" type="line"/>
      <point x="1474" y="665" type="line"/>
      <point x="1570" y="938" type="line"/>
      <point x="1731" y="938" type="line"/>
      <point x="1747" y="1098" type="line"/>
      <point x="1626" y="1098" type="line"/>
      <point x="1778" y="1530" type="line"/>
      <point x="1525" y="1530" type="line"/>
      <point x="1385" y="1098" type="line"/>
      <point x="1066" y="1098" type="line"/>
      <point x="1033" y="1530" type="line"/>
      <point x="802" y="1530" type="line"/>
      <point x="830" y="1246" type="line"/>
      <point x="775" y="1098" type="line"/>
      <point x="419" y="1098" type="line"/>
      <point x="380" y="1530" type="line"/>
      <point x="139" y="1530" type="line"/>
      <point x="189" y="1098" type="line"/>
      <point x="22" y="1098" type="line"/>
      <point x="5" y="938" type="line"/>
      <point x="207" y="938" type="line"/>
      <point x="238" y="665" type="line"/>
      <point x="-28" y="665" type="line"/>
    </contour>
  </outline>
</glyph>
<glyph name="sheqel" format="1">
  <advance width="1697"/>
  <unicode hex="20AA"/>
  <outline>
    <contour>
      <point x="1531" y="1522" type="line" name="hr00"/>
      <point x="1354" y="169" type="line"/>
      <point x="1028" y="169" type="line" smooth="yes"/>
      <point x="813" y="169"/>
      <point x="733" y="205"/>
      <point x="748" y="351" type="curve"/>
      <point x="863" y="1118" type="line"/>
      <point x="616" y="1118" type="line"/>
      <point x="500" y="326" type="line"/>
      <point x="477" y="91"/>
      <point x="656" y="0"/>
      <point x="862" y="0" type="curve" smooth="yes"/>
      <point x="1570" y="0" type="line"/>
      <point x="1765" y="1522" type="line"/>
    </contour>
    <contour>
      <point x="263" y="0" type="line"/>
      <point x="458" y="1319" type="line"/>
      <point x="862" y="1319" type="line" smooth="yes"/>
      <point x="1034" y="1319"/>
      <point x="1076" y="1242"/>
      <point x="1057" y="1061" type="curve"/>
      <point x="952" y="382" type="line"/>
      <point x="1196" y="382" type="line"/>
      <point x="1304" y="1102" type="line"/>
      <point x="1326" y="1308"/>
      <point x="1267" y="1522"/>
      <point x="993" y="1521" type="curve"/>
      <point x="248" y="1522" type="line"/>
      <point x="36" y="0" type="line"/>
    </contour>
  </outline>
</glyph>
<glyph name="peso" format="1">
  <advance width="1511"/>
  <unicode hex="20B1"/>
  <outline>
    <contour>
      <point x="576" y="804" type="line" name="hr01"/>
      <point x="1004" y="804" type="line"/>
      <point x="945" y="696"/>
      <point x="847" y="627"/>
      <point x="709" y="626" type="curve" smooth="yes"/>
      <point x="658" y="625"/>
      <point x="582" y="631"/>
      <point x="554" y="638" type="curve"/>
    </contour>
    <contour>
      <point x="1056" y="1180" type="curve"/>
      <point x="627" y="1180" type="line"/>
      <point x="647" y="1328" type="line"/>
      <point x="689" y="1336"/>
      <point x="763" y="1343"/>
      <point x="801" y="1343" type="curve" smooth="yes"/>
      <point x="948" y="1343"/>
      <point x="1027" y="1276"/>
    </contour>
    <contour>
      <point x="613" y="1073" type="line"/>
      <point x="1069" y="1073" type="line"/>
      <point x="1069" y="1071"/>
      <point x="1069" y="1068"/>
      <point x="1069" y="1066" type="curve" smooth="yes"/>
      <point x="1067" y="1011"/>
      <point x="1059" y="959"/>
      <point x="1046" y="911" type="curve"/>
      <point x="591" y="911" type="line"/>
    </contour>
    <contour>
      <point x="169" y="1073" type="line"/>
      <point x="327" y="1073" type="line"/>
      <point x="305" y="911" type="line"/>
      <point x="153" y="911" type="line"/>
      <point x="138" y="804" type="line"/>
      <point x="291" y="804" type="line"/>
      <point x="182" y="0" type="line"/>
      <point x="468" y="0" type="line"/>
      <point x="524" y="414" type="line"/>
      <point x="547" y="412"/>
      <point x="622" y="408"/>
      <point x="703" y="408" type="curve" smooth="yes"/>
      <point x="990" y="408"/>
      <point x="1203" y="574"/>
      <point x="1298" y="804" type="curve"/>
      <point x="1479" y="804" type="line"/>
      <point x="1494" y="911" type="line"/>
      <point x="1333" y="911" type="line"/>
      <point x="1345" y="963"/>
      <point x="1352" y="1018"/>
      <point x="1353" y="1073" type="curve"/>
      <point x="1510" y="1073" type="line"/>
      <point x="1525" y="1180" type="line"/>
      <point x="1346" y="1180" type="line"/>
      <point x="1309" y="1408"/>
      <point x="1135" y="1546"/>
      <point x="850" y="1546" type="curve" name="hr02" smooth="yes"/>
      <point x="728" y="1546"/>
      <point x="614" y="1530"/>
      <point x="528" y="1530" type="curve" name="hr03" smooth="yes"/>
      <point x="389" y="1530" type="line"/>
      <point x="342" y="1180" type="line"/>
      <point x="184" y="1180" type="line"/>
    </contour>
  </outline>
</glyph>
<glyph name="guarani" format="1">
  <advance width="1510"/>
  <unicode hex="20B2"/>
  <outline>
    <contour>
      <point x="1023" y="1542" type="curve" name="hr00"/>
      <point x="1056" y="1771" type="line"/>
      <point x="863" y="1771" type="line"/>
      <point x="829" y="1540" type="line"/>
      <point x="437" y="1491"/>
      <point x="138" y="1131"/>
      <point x="143" y="616" type="curve"/>
      <point x="145" y="326"/>
      <point x="276" y="15"/>
      <point x="643" y="-14" type="curve"/>
      <point x="610" y="-258" type="line"/>
      <point x="804" y="-258" type="line"/>
      <point x="838" y="-7" type="line"/>
      <point x="952" y="7"/>
      <point x="1050" y="36"/>
      <point x="1125" y="58" type="curve" smooth="yes"/>
      <point x="1180" y="74"/>
      <point x="1214" y="82"/>
      <point x="1246" y="86" type="curve"/>
      <point x="1342" y="797" type="line"/>
      <point x="832" y="797" type="line"/>
      <point x="804" y="570" type="line"/>
      <point x="1045" y="570" type="line"/>
      <point x="1000" y="252" type="line"/>
      <point x="926" y="216"/>
      <point x="812" y="201"/>
      <point x="746" y="201" type="curve" smooth="yes"/>
      <point x="522" y="201"/>
      <point x="434" y="391"/>
      <point x="433" y="637" type="curve" smooth="yes"/>
      <point x="432" y="930"/>
      <point x="554" y="1314"/>
      <point x="915" y="1314" type="curve" smooth="yes"/>
      <point x="1096" y="1314"/>
      <point x="1240" y="1244"/>
      <point x="1287" y="1208" type="curve"/>
      <point x="1356" y="1467" type="line"/>
      <point x="1286" y="1490" type="line" smooth="yes"/>
      <point x="1235" y="1507"/>
      <point x="1151" y="1533"/>
    </contour>
  </outline>
</glyph>
<glyph name="uni20B5" format="1">
  <advance width="1434"/>
  <unicode hex="20B5"/>
  <outline>
    <contour>
      <point x="806" y="1318" type="curve" name="hr01"/>
      <point x="650" y="199" type="line"/>
      <point x="506" y="255"/>
      <point x="451" y="428"/>
      <point x="456" y="661" type="curve" smooth="yes"/>
      <point x="463" y="1000"/>
      <point x="591" y="1247"/>
    </contour>
    <contour>
      <point x="704" y="-347" type="line"/>
      <point x="750" y="-15" type="line" name="hr02"/>
      <point x="950" y="-9"/>
      <point x="1109" y="52"/>
      <point x="1181" y="127" type="curve"/>
      <point x="1117" y="295" type="line"/>
      <point x="1032" y="235"/>
      <point x="932" y="182"/>
      <point x="778" y="179" type="curve" name="hr03"/>
      <point x="940" y="1339" type="line"/>
      <point x="940" y="1339" type="line"/>
      <point x="1078" y="1339"/>
      <point x="1185" y="1299"/>
      <point x="1210" y="1271" type="curve"/>
      <point x="1280" y="1492" type="line"/>
      <point x="1207" y="1514"/>
      <point x="1123" y="1545"/>
      <point x="969" y="1546" type="curve"/>
      <point x="1006" y="1814" type="line"/>
      <point x="876" y="1814" type="line"/>
      <point x="837" y="1537" type="line"/>
      <point x="445" y="1479"/>
      <point x="164" y="1134"/>
      <point x="164" y="644" type="curve"/>
      <point x="163" y="353"/>
      <point x="282" y="39"/>
      <point x="620" y="-10" type="curve" name="hr04"/>
      <point x="573" y="-347" type="line"/>
    </contour>
  </outline>
</glyph>
<glyph name="rupeeIndian" format="1">
  <advance width="1298"/>
  <unicode hex="20B9"/>
  <outline>
    <contour>
      <point x="225" y="1358" type="line" name="hr00"/>
      <point x="717" y="1358" type="line"/>
      <point x="769" y="1329"/>
      <point x="787" y="1270"/>
      <point x="787" y="1187" type="curve" smooth="yes"/>
      <point x="787" y="1175"/>
      <point x="787" y="1163"/>
      <point x="787" y="1152" type="curve"/>
      <point x="225" y="1152" type="line"/>
      <point x="202" y="987" type="line"/>
      <point x="759" y="987" type="line"/>
      <point x="707" y="840"/>
      <point x="594" y="770"/>
      <point x="440" y="770" type="curve" smooth="yes"/>
      <point x="314" y="770"/>
      <point x="217" y="772"/>
      <point x="178" y="777" type="curve"/>
      <point x="150" y="595" type="line"/>
      <point x="181" y="591"/>
      <point x="305" y="587"/>
      <point x="379" y="587" type="curve" smooth="yes"/>
      <point x="405" y="587"/>
      <point x="441" y="588"/>
      <point x="477" y="590" type="curve"/>
      <point x="589" y="469"/>
      <point x="643" y="0"/>
      <point x="728" y="0" type="curve" smooth="yes"/>
      <point x="1040" y="0" type="line"/>
      <point x="905" y="162"/>
      <point x="859" y="509"/>
      <point x="742" y="631" type="curve"/>
      <point x="878" y="697"/>
      <point x="994" y="820"/>
      <point x="1044" y="987" type="curve"/>
      <point x="1223" y="987" type="line"/>
      <point x="1246" y="1152" type="line"/>
      <point x="1071" y="1152" type="line"/>
      <point x="1071" y="1160"/>
      <point x="1071" y="1167"/>
      <point x="1071" y="1175" type="curve" smooth="yes"/>
      <point x="1071" y="1255"/>
      <point x="1051" y="1315"/>
      <point x="1022" y="1358" type="curve"/>
      <point x="1264" y="1358" type="line"/>
      <point x="1285" y="1526" type="line"/>
      <point x="247" y="1526" type="line"/>
    </contour>
  </outline>
</glyph>
<glyph name="literSign" format="1">
  <advance width="1301"/>
  <unicode hex="2113"/>
  <outline>
    <contour>
      <point x="223" y="28" type="line"/>
      <point x="746" y="378"/>
      <point x="1163" y="888"/>
      <point x="1161" y="1374" type="curve" smooth="yes"/>
      <point x="1160" y="1556"/>
      <point x="1068" y="1665"/>
      <point x="908" y="1665" type="curve" smooth="yes"/>
      <point x="514" y="1665"/>
      <point x="271" y="1039"/>
      <point x="271" y="541" type="curve" smooth="yes"/>
      <point x="271" y="146"/>
      <point x="472" y="-22"/>
      <point x="648" y="-22" type="curve" smooth="yes"/>
      <point x="968" y="-22"/>
      <point x="1095" y="219"/>
      <point x="1153" y="396" type="curve"/>
      <point x="941" y="459" type="line"/>
      <point x="901" y="302"/>
      <point x="803" y="193"/>
      <point x="683" y="193" type="curve" smooth="yes"/>
      <point x="558" y="193"/>
      <point x="515" y="344"/>
      <point x="515" y="529" type="curve" smooth="yes"/>
      <point x="515" y="923"/>
      <point x="693" y="1432"/>
      <point x="854" y="1432" type="curve" smooth="yes"/>
      <point x="898" y="1432"/>
      <point x="915" y="1385"/>
      <point x="915" y="1339" type="curve" smooth="yes"/>
      <point x="920" y="942"/>
      <point x="469" y="474"/>
      <point x="23" y="162" type="curve"/>
    </contour>
    <contour>
      <point x="439" y="-75" type="move" name="btm"/>
    </contour>
    <contour>
      <point x="442" y="1795" type="move" name="top"/>
    </contour>
  </outline>
</glyph>
<glyph name="Ohm" format="1">
  <advance width="1659"/>
  <unicode hex="2126"/>
  <outline>
    <contour>
      <point x="525" y="118" type="curve"/>
      <point x="618" y="0" type="line"/>
      <point x="683" y="164" type="line"/>
      <point x="558" y="244"/>
      <point x="425" y="511"/>
      <point x="425" y="774" type="curve" smooth="yes"/>
      <point x="425" y="1174"/>
      <point x="628" y="1330"/>
      <point x="881" y="1330" type="curve" smooth="yes"/>
      <point x="1059" y="1330"/>
      <point x="1273" y="1211"/>
      <point x="1273" y="887" type="curve" smooth="yes"/>
      <point x="1273" y="585"/>
      <point x="1100" y="276"/>
      <point x="887" y="164" type="curve"/>
      <point x="932" y="0" type="line"/>
      <point x="1031" y="100" type="line"/>
      <point x="1348" y="257"/>
      <point x="1540" y="651"/>
      <point x="1540" y="937" type="curve" smooth="yes"/>
      <point x="1540" y="1326"/>
      <point x="1264" y="1546"/>
      <point x="909" y="1546" type="curve" smooth="yes"/>
      <point x="459" y="1546"/>
      <point x="166" y="1310"/>
      <point x="166" y="799" type="curve" smooth="yes"/>
      <point x="166" y="521"/>
      <point x="340" y="232"/>
    </contour>
    <contour>
      <point x="63" y="0" type="line"/>
      <point x="618" y="0" type="line"/>
      <point x="514" y="202" type="line"/>
      <point x="89" y="202" type="line"/>
    </contour>
    <contour>
      <point x="932" y="0" type="line"/>
      <point x="1508" y="0" type="line"/>
      <point x="1528" y="207" type="line"/>
      <point x="1020" y="207" type="line"/>
    </contour>
  </outline>
</glyph>
<glyph name="estimated" format="1">
  <advance width="1407"/>
  <unicode hex="212E"/>
  <outline>
    <contour>
      <point x="319" y="582" type="curve"/>
      <point x="313" y="682"/>
      <point x="318" y="806"/>
      <point x="334" y="877" type="curve" smooth="yes"/>
      <point x="388" y="1123"/>
      <point x="541" y="1216"/>
      <point x="740" y="1216" type="curve" smooth="yes"/>
      <point x="1009" y="1216"/>
      <point x="1086" y="1071"/>
      <point x="1103" y="909" type="curve" smooth="yes"/>
      <point x="1108" y="868"/>
      <point x="1108" y="810"/>
      <point x="1106" y="768" type="curve"/>
      <point x="261" y="768" type="line"/>
      <point x="241" y="622" type="line"/>
      <point x="1288" y="622" type="line"/>
      <point x="1298" y="673"/>
      <point x="1298" y="746"/>
      <point x="1298" y="832" type="curve"/>
      <point x="1288" y="1161"/>
      <point x="1049" y="1361"/>
      <point x="754" y="1356" type="curve" smooth="yes"/>
      <point x="326" y="1349"/>
      <point x="120" y="1063"/>
      <point x="120" y="671" type="curve" smooth="yes"/>
      <point x="120" y="241"/>
      <point x="355" y="-16"/>
      <point x="755" y="-16" type="curve" smooth="yes"/>
      <point x="923" y="-16"/>
      <point x="1113" y="38"/>
      <point x="1200" y="99" type="curve"/>
      <point x="1144" y="231" type="line"/>
      <point x="1075" y="187"/>
      <point x="927" y="124"/>
      <point x="770" y="124" type="curve" smooth="yes"/>
      <point x="525" y="124"/>
      <point x="334" y="231"/>
    </contour>
    <contour>
      <point x="438" y="191" type="line"/>
      <point x="438" y="1155" type="line"/>
      <point x="306" y="1078" type="line"/>
      <point x="306" y="237" type="line"/>
    </contour>
    <contour>
      <point x="995" y="736" type="line"/>
      <point x="1121" y="736" type="line"/>
      <point x="1121" y="1158" type="line"/>
      <point x="995" y="1198" type="line"/>
    </contour>
  </outline>
</glyph>
<glyph name="Delta" format="1">
  <advance width="1407"/>
  <unicode hex="2206"/>
  <outline>
    <contour>
      <point x="-44" y="22" type="line"/>
      <point x="-32" y="0" type="line"/>
      <point x="1305" y="0" type="line"/>
      <point x="1322" y="27" type="line"/>
      <point x="753" y="1508" type="line"/>
      <point x="721" y="1508" type="line"/>
    </contour>
    <contour>
      <point x="338" y="229" type="line"/>
      <point x="707" y="985" type="line"/>
      <point x="980" y="229" type="line"/>
    </contour>
  </outline>
</glyph>
<glyph name="infinity" format="1">
  <advance width="1953"/>
  <unicode hex="221E"/>
  <outline>
    <contour>
      <point x="552" y="188" type="curve" smooth="yes"/>
      <point x="733" y="190"/>
      <point x="873" y="296"/>
      <point x="970" y="420" type="curve"/>
      <point x="1065" y="293"/>
      <point x="1189" y="185"/>
      <point x="1415" y="185" type="curve" smooth="yes"/>
      <point x="1710" y="185"/>
      <point x="1886" y="365"/>
      <point x="1886" y="622" type="curve" smooth="yes"/>
      <point x="1886" y="840"/>
      <point x="1745" y="1047"/>
      <point x="1423" y="1044" type="curve" smooth="yes"/>
      <point x="1243" y="1042"/>
      <point x="1099" y="929"/>
      <point x="999" y="804" type="curve"/>
      <point x="902" y="934"/>
      <point x="772" y="1046"/>
      <point x="546" y="1046" type="curve" smooth="yes"/>
      <point x="273" y="1047"/>
      <point x="81" y="880"/>
      <point x="81" y="613" type="curve" smooth="yes"/>
      <point x="81" y="387"/>
      <point x="242" y="184"/>
    </contour>
    <contour>
      <point x="1112" y="647" type="curve"/>
      <point x="1200" y="768"/>
      <point x="1288" y="837"/>
      <point x="1390" y="837" type="curve" smooth="yes"/>
      <point x="1549" y="837"/>
      <point x="1631" y="738"/>
      <point x="1631" y="619" type="curve" smooth="yes"/>
      <point x="1631" y="490"/>
      <point x="1558" y="389"/>
      <point x="1432" y="389" type="curve" smooth="yes"/>
      <point x="1294" y="389"/>
      <point x="1188" y="523"/>
    </contour>
    <contour>
      <point x="574" y="388" type="curve" smooth="yes"/>
      <point x="411" y="388"/>
      <point x="334" y="493"/>
      <point x="334" y="614" type="curve" smooth="yes"/>
      <point x="334" y="737"/>
      <point x="411" y="835"/>
      <point x="553" y="835" type="curve" smooth="yes"/>
      <point x="684" y="835"/>
      <point x="784" y="701"/>
      <point x="858" y="579" type="curve"/>
      <point x="768" y="458"/>
      <point x="675" y="388"/>
    </contour>
  </outline>
</glyph>
<glyph name="notequal" format="1">
  <advance width="1074"/>
  <unicode hex="2260"/>
  <outline>
    <contour>
      <point x="145" y="0" type="line"/>
      <point x="335" y="0" type="line"/>
      <point x="953" y="1337" type="line"/>
      <point x="762" y="1337" type="line"/>
    </contour>
    <component base="equal"/>
  </outline>
</glyph>
<glyph name="lessequal" format="1">
  <advance width="1380"/>
  <unicode hex="2264"/>
  <outline>
    <contour>
      <point x="146" y="-1" type="line"/>
      <point x="1093" y="-1" type="line"/>
      <point x="1110" y="178" type="line"/>
      <point x="164" y="178" type="line"/>
    </contour>
    <contour>
      <point x="202" y="696" type="line"/>
      <point x="1104" y="249" type="line"/>
      <point x="1130" y="475" type="line"/>
      <point x="581" y="729" type="line"/>
      <point x="1187" y="980" type="line"/>
      <point x="1217" y="1216" type="line"/>
      <point x="209" y="775" type="line"/>
    </contour>
  </outline>
</glyph>
<glyph name="greaterequal" format="1">
  <advance width="1380"/>
  <unicode hex="2265"/>
  <outline>
    <contour>
      <point x="152" y="-1" type="line"/>
      <point x="171" y="178" type="line"/>
      <point x="1117" y="178" type="line"/>
      <point x="1099" y="-1" type="line"/>
    </contour>
    <contour>
      <point x="193" y="249" type="line"/>
      <point x="223" y="496" type="line"/>
      <point x="827" y="743" type="line"/>
      <point x="290" y="1000" type="line"/>
      <point x="318" y="1230" type="line"/>
      <point x="1218" y="768" type="line"/>
      <point x="1205" y="679" type="line"/>
    </contour>
  </outline>
</glyph>
<glyph name="lozenge" format="1">
  <advance width="1275"/>
  <unicode hex="25CA"/>
  <outline>
    <contour>
      <point x="642" y="-1" type="line"/>
      <point x="647" y="-1" type="line"/>
      <point x="1222" y="765" type="line"/>
      <point x="1222" y="778" type="line"/>
      <point x="647" y="1533" type="line"/>
      <point x="643" y="1533" type="line"/>
      <point x="68" y="778" type="line"/>
      <point x="68" y="765" type="line"/>
    </contour>
    <contour>
      <point x="643" y="354" type="line"/>
      <point x="348" y="769" type="line"/>
      <point x="348" y="774" type="line"/>
      <point x="643" y="1171" type="line"/>
      <point x="646" y="1171" type="line"/>
      <point x="942" y="774" type="line"/>
      <point x="942" y="771" type="line"/>
      <point x="646" y="354" type="line"/>
    </contour>
  </outline>
</glyph>
<glyph name="IJ_acutecomb" format="1">
  <advance width="1283"/>
  <outline>
    <contour>
      <point x="113" y="0" type="line"/>
      <point x="389" y="0" type="line"/>
      <point x="595" y="1530" type="line"/>
      <point x="319" y="1530" type="line"/>
    </contour>
    <contour>
      <point x="503" y="1572" type="line"/>
      <point x="599" y="1608"/>
      <point x="782" y="1744"/>
      <point x="839" y="1850" type="curve"/>
      <point x="672" y="2007" type="line"/>
      <point x="395" y="1665" type="line"/>
    </contour>
    <contour>
      <point x="760" y="86" type="curve" smooth="yes"/>
      <point x="734" y="-45"/>
      <point x="633" y="-186"/>
      <point x="468" y="-233" type="curve"/>
      <point x="507" y="-336" type="line"/>
      <point x="727" y="-319"/>
      <point x="944" y="-232"/>
      <point x="1030" y="75" type="curve" smooth="yes"/>
      <point x="1059" y="172"/>
      <point x="1148" y="854"/>
      <point x="1235" y="1530" type="curve"/>
      <point x="958" y="1530" type="line"/>
      <point x="902" y="1095"/>
      <point x="843" y="477"/>
    </contour>
    <component base="acute.cap" xOffset="970" yOffset="-1"/>
  </outline>
</glyph>
<glyph name="acute.cap" format="1">
  <advance width="529"/>
  <outline>
    <contour>
      <point x="158" y="1572" type="line"/>
      <point x="254" y="1608"/>
      <point x="437" y="1744"/>
      <point x="494" y="1850" type="curve"/>
      <point x="327" y="2007" type="line"/>
      <point x="50" y="1665" type="line"/>
    </contour>
    <contour>
      <point x="118" y="1700" type="move" name="_top"/>
    </contour>
  </outline>
</glyph>
<glyph name="caron.cap" format="1">
  <advance width="797"/>
  <outline>
    <contour>
      <point x="280" y="1607" type="line"/>
      <point x="458" y="1607" type="line"/>
      <point x="801" y="1930" type="line"/>
      <point x="686" y="2007" type="line"/>
      <point x="386" y="1801" type="line"/>
      <point x="169" y="2007" type="line"/>
      <point x="53" y="1924" type="line"/>
    </contour>
    <contour>
      <point x="380" y="1700" type="move" name="_top"/>
    </contour>
  </outline>
</glyph>
<glyph name="caronvertical" format="1">
  <advance width="317"/>
  <outline>
    <contour>
      <point x="202" y="1070" type="line"/>
      <point x="327" y="1036" type="line"/>
      <point x="411" y="1141"/>
      <point x="460" y="1328"/>
      <point x="460" y="1472" type="curve" smooth="yes"/>
      <point x="460" y="1560"/>
      <point x="451" y="1639"/>
      <point x="426" y="1681" type="curve"/>
      <point x="223" y="1634" type="line"/>
      <point x="209" y="1597" type="line"/>
      <point x="229" y="1567"/>
      <point x="237" y="1476"/>
      <point x="237" y="1401" type="curve" smooth="yes"/>
      <point x="237" y="1290"/>
      <point x="218" y="1173"/>
      <point x="196" y="1095" type="curve"/>
    </contour>
    <contour>
      <point x="154" y="1700" type="move" name="car"/>
    </contour>
  </outline>
</glyph>
<glyph name="circumflex.cap" format="1">
  <advance width="799"/>
  <outline>
    <contour>
      <point x="147" y="1589" type="line"/>
      <point x="447" y="1794" type="line"/>
      <point x="644" y="1594" type="line"/>
      <point x="763" y="1667" type="line"/>
      <point x="562" y="2007" type="line"/>
      <point x="383" y="2007" type="line"/>
      <point x="34" y="1661" type="line"/>
    </contour>
    <contour>
      <point x="379" y="1700" type="move" name="_top"/>
    </contour>
  </outline>
</glyph>
<glyph name="dotaccent.cap" format="1">
  <advance width="391"/>
  <outline>
    <contour>
      <point x="171" y="1654" type="curve" smooth="yes"/>
      <point x="281" y="1654"/>
      <point x="353" y="1735"/>
      <point x="356" y="1829" type="curve" smooth="yes"/>
      <point x="358" y="1904"/>
      <point x="301" y="1967"/>
      <point x="204" y="1967" type="curve" smooth="yes"/>
      <point x="109" y="1967"/>
      <point x="30" y="1890"/>
      <point x="27" y="1797" type="curve" smooth="yes"/>
      <point x="25" y="1719"/>
      <point x="89" y="1654"/>
    </contour>
    <contour>
      <point x="163" y="1700" type="move" name="_top"/>
    </contour>
  </outline>
</glyph>
<glyph name="four.numr" format="1">
  <advance width="1229"/>
  <outline>
    <contour>
      <point x="141" y="759" type="line"/>
      <point x="1119" y="759" type="line"/>
      <point x="1141" y="958" type="line"/>
      <point x="360" y="928" type="line"/>
      <point x="433" y="1017" type="line"/>
      <point x="901" y="1656" type="line"/>
      <point x="728" y="1760" type="line"/>
      <point x="670" y="1759" type="line"/>
      <point x="92" y="871" type="line"/>
    </contour>
    <contour>
      <point x="609" y="441" type="line"/>
      <point x="849" y="441" type="line"/>
      <point x="948" y="1214" type="line"/>
      <point x="713" y="1191" type="line"/>
    </contour>
  </outline>
</glyph>
<glyph name="grave.cap" format="1">
  <advance width="525"/>
  <outline>
    <contour>
      <point x="366" y="1572" type="curve"/>
      <point x="474" y="1665" type="line"/>
      <point x="197" y="2007" type="line"/>
      <point x="30" y="1850" type="line"/>
      <point x="87" y="1744"/>
      <point x="270" y="1608"/>
    </contour>
    <contour>
      <point x="358" y="1700" type="move" name="_top"/>
    </contour>
  </outline>
</glyph>
<glyph name="hungarumlaut.cap" format="1">
  <advance width="927"/>
  <outline>
    <contour>
      <point x="113" y="1560" type="line"/>
      <point x="213" y="1597"/>
      <point x="409" y="1761"/>
      <point x="461" y="1877" type="curve"/>
      <point x="303" y="2007" type="line"/>
      <point x="5" y="1635" type="line"/>
    </contour>
    <contour>
      <point x="555" y="1560" type="line"/>
      <point x="669" y="1598"/>
      <point x="852" y="1760"/>
      <point x="915" y="1876" type="curve"/>
      <point x="758" y="2007" type="line"/>
      <point x="459" y="1635" type="line"/>
    </contour>
    <contour>
      <point x="334" y="1700" type="move" name="_top"/>
    </contour>
  </outline>
</glyph>
<glyph name="one.numr" format="1">
  <advance width="1020"/>
  <outline>
    <contour>
      <point x="429" y="591" type="line"/>
      <point x="674" y="591" type="line"/>
      <point x="815" y="1624" type="line"/>
      <point x="696" y="1645" type="line"/>
      <point x="645" y="1604"/>
      <point x="420" y="1501"/>
      <point x="280" y="1466" type="curve"/>
      <point x="290" y="1326" type="line"/>
      <point x="536" y="1378" type="line"/>
    </contour>
  </outline>
</glyph>
<glyph name="ring.cap" format="1">
  <advance width="726"/>
  <outline>
    <contour>
      <point x="348" y="1469" type="curve" smooth="yes"/>
      <point x="529" y="1469"/>
      <point x="703" y="1561"/>
      <point x="703" y="1758" type="curve" smooth="yes"/>
      <point x="703" y="1921"/>
      <point x="584" y="2007"/>
      <point x="412" y="2007" type="curve" smooth="yes"/>
      <point x="253" y="2007"/>
      <point x="43" y="1928"/>
      <point x="43" y="1718" type="curve" smooth="yes"/>
      <point x="43" y="1557"/>
      <point x="162" y="1469"/>
    </contour>
    <contour>
      <point x="357" y="1592" type="curve" smooth="yes"/>
      <point x="279" y="1592"/>
      <point x="211" y="1651"/>
      <point x="211" y="1727" type="curve" smooth="yes"/>
      <point x="211" y="1849"/>
      <point x="308" y="1885"/>
      <point x="391" y="1885" type="curve" smooth="yes"/>
      <point x="471" y="1885"/>
      <point x="534" y="1830"/>
      <point x="534" y="1753" type="curve" smooth="yes"/>
      <point x="534" y="1622"/>
      <point x="446" y="1592"/>
    </contour>
    <contour>
      <point x="347" y="1700" type="move" name="_top"/>
    </contour>
  </outline>
</glyph>
